<?xml version="1.0" standalone="no"?>
<!DOCTYPE svg PUBLIC "-//W3C//DTD SVG 20010904//EN"
 "http://www.w3.org/TR/2001/REC-SVG-20010904/DTD/svg10.dtd">
<svg version="1.0" xmlns="http://www.w3.org/2000/svg"
 width="1104.000000pt" height="976.000000pt" viewBox="0 0 1104.000000 976.000000"
 preserveAspectRatio="xMidYMid meet">

<g transform="translate(0.000000,976.000000) scale(0.100000,-0.100000)"
fill="#000000" stroke="none">
<path d="M4715 9753 c-832 -175 -1614 -557 -2289 -1116 -150 -125 -503 -477
-616 -616 -185 -226 -341 -443 -460 -641 -75 -125 -229 -417 -272 -515 -223
-515 -343 -940 -407 -1440 -69 -531 -48 -1124 55 -1615 30 -141 96 -385 144
-536 133 -412 349 -859 583 -1209 245 -367 516 -686 803 -946 488 -441 1023
-780 1594 -1009 279 -113 268 -110 474 -109 l181 0 -85 25 c-1103 322 -2034
959 -2704 1852 -798 1063 -1123 2364 -920 3672 154 986 627 1936 1319 2649
585 602 1301 1051 2080 1304 372 121 739 201 1069 232 89 9 168 17 176 19 22
5 -701 4 -725 -1z"/>
<path d="M6325 9753 c268 -25 702 -101 930 -164 794 -220 1518 -616 2116
-1159 121 -110 409 -411 497 -520 632 -783 1007 -1692 1097 -2660 21 -215 24
-693 6 -870 -53 -540 -155 -954 -352 -1432 -373 -905 -1039 -1707 -1883 -2267
-356 -236 -845 -471 -1241 -596 -99 -31 -198 -63 -220 -70 -37 -12 -25 -13
131 -14 l171 -1 124 44 c1005 355 1927 1073 2542 1981 380 562 647 1208 766
1855 l31 165 0 750 c0 609 -3 766 -15 835 -165 966 -628 1893 -1302 2603 -256
269 -498 478 -794 685 -528 370 -1126 643 -1749 797 l-183 45 -356 -2 c-196
-1 -338 -3 -316 -5z"/>
<path d="M5730 9221 c-26 -53 -75 -191 -105 -301 -13 -47 -38 -136 -56 -198
-33 -112 -33 -112 -69 -122 -20 -5 -45 -19 -55 -29 -17 -19 -16 -21 15 -49
l32 -29 -45 -164 c-47 -175 -47 -199 -1 -199 51 0 76 49 151 285 l28 90 100
27 c55 15 103 27 106 28 3 0 10 -47 16 -103 12 -113 53 -227 115 -319 69 -100
202 -122 185 -31 -3 16 -19 82 -36 148 -17 66 -41 181 -54 257 l-24 136 44 31
c56 40 52 57 -15 54 l-50 -2 -7 52 c-14 106 -63 335 -79 369 -28 59 -78 100
-129 105 -45 5 -46 5 -67 -36z m50 -273 c1 -35 19 -218 26 -253 l6 -31 -65
-12 c-35 -7 -69 -12 -74 -12 -6 0 13 74 41 165 48 156 66 194 66 143z"/>
<path d="M6460 9204 c-6 -14 -10 -31 -10 -39 0 -7 -24 -109 -54 -227 -30 -117
-75 -292 -100 -389 -24 -97 -50 -222 -56 -279 -12 -98 -12 -103 8 -123 16 -15
38 -22 82 -25 70 -5 90 6 90 52 0 65 82 366 100 366 5 0 11 -15 15 -32 11 -52
114 -407 137 -473 56 -158 152 -307 242 -375 101 -77 225 -114 320 -96 32 6
36 10 36 36 0 25 -4 30 -23 30 -42 0 -143 59 -202 117 -70 70 -108 143 -186
365 -33 95 -90 242 -125 327 -35 85 -63 155 -62 156 2 2 30 10 63 20 176 50
288 162 302 301 14 132 -115 250 -251 230 -26 -4 -71 -20 -101 -36 -59 -31
-55 -33 -90 35 -12 25 -35 48 -60 62 -52 29 -63 29 -75 -3z m369 -157 c61 -30
44 -135 -33 -212 -46 -45 -196 -135 -225 -135 -35 0 26 193 87 272 34 45 99
88 132 88 8 0 26 -6 39 -13z"/>
<path d="M5063 9189 c-121 -29 -402 -122 -462 -153 -17 -9 -31 -23 -31 -31 0
-8 27 -28 60 -45 l61 -31 77 21 c42 12 84 23 93 26 14 4 20 -21 43 -168 79
-513 98 -605 142 -696 18 -38 37 -59 68 -77 47 -27 67 -30 96 -15 16 9 18 15
9 38 -11 28 -17 61 -49 287 -32 224 -68 456 -84 541 -8 44 -17 95 -21 115 l-5
36 77 23 c176 51 223 71 223 98 0 27 -14 42 -51 52 -54 16 -115 11 -246 -21z"/>
<path d="M4241 8996 c-21 -25 -23 -81 -7 -147 16 -64 147 -479 168 -532 6 -15
8 -30 5 -33 -3 -3 -88 75 -189 173 -202 198 -278 262 -350 299 -55 28 -94 30
-126 8 -38 -26 -38 -25 116 -429 130 -342 199 -482 265 -542 45 -40 77 -39
116 4 31 36 27 58 -50 239 -34 82 -84 200 -111 263 -26 63 -46 116 -45 117 1
2 90 -79 198 -179 107 -100 223 -203 258 -229 95 -72 173 -85 207 -33 19 29
10 68 -51 235 -26 69 -62 168 -80 220 -108 313 -156 421 -226 510 -58 75 -75
84 -98 56z"/>
<path d="M7520 8839 c-47 -50 -144 -164 -215 -253 l-131 -161 -61 -3 c-73 -3
-83 -18 -52 -68 24 -40 30 -27 -76 -164 -56 -72 -65 -90 -63 -120 6 -74 67
-39 194 111 41 49 83 93 93 99 15 8 196 -6 209 -16 2 -1 -3 -35 -12 -76 -32
-144 -37 -317 -11 -398 3 -10 22 -33 41 -50 27 -23 44 -30 67 -28 31 3 32 4
40 68 15 124 48 306 70 389 20 77 25 85 52 94 36 12 78 48 68 58 -5 4 -24 9
-43 11 -19 2 -34 8 -33 13 1 6 15 80 32 164 17 84 34 193 38 241 5 80 4 91
-16 124 -13 20 -31 41 -41 46 -43 23 -64 12 -150 -81z m-21 -280 c-16 -62 -34
-129 -41 -151 l-11 -39 -46 7 c-25 3 -62 9 -81 13 l-35 7 51 54 c27 30 81 92
118 138 37 45 69 82 71 82 2 0 -10 -50 -26 -111z"/>
<path d="M8024 8665 c-19 -104 27 -149 341 -333 88 -51 166 -99 173 -106 10
-10 3 -25 -39 -79 -28 -37 -55 -67 -59 -67 -5 0 -21 11 -37 24 -54 45 -176
118 -237 143 -124 49 -254 36 -344 -36 -51 -40 -72 -85 -72 -155 0 -186 165
-316 316 -247 85 39 125 149 88 244 -5 15 4 13 57 -11 35 -17 84 -36 108 -44
25 -8 46 -19 48 -24 2 -5 -40 -74 -93 -154 -52 -80 -112 -179 -132 -220 -32
-65 -37 -85 -37 -146 0 -57 4 -76 19 -93 28 -31 50 -26 70 16 10 21 90 143
179 273 157 230 291 428 313 466 11 18 13 18 55 -5 24 -14 65 -40 90 -58 25
-18 49 -30 52 -26 10 9 8 71 -3 118 -15 69 -72 110 -465 335 -156 90 -305 179
-337 201 -38 26 -46 24 -54 -16z m46 -583 c0 -19 -62 -93 -86 -102 -31 -12
-71 -13 -78 -2 -11 18 30 78 64 94 36 19 100 24 100 10z"/>
<path d="M3132 8415 c-18 -8 -35 -20 -38 -28 -11 -29 69 -292 186 -614 11 -30
9 -35 -19 -65 -21 -22 -31 -41 -29 -58 3 -22 8 -25 49 -28 l45 -3 23 -72 c51
-159 82 -227 109 -234 29 -7 52 17 52 54 0 12 -18 93 -40 179 -22 86 -40 160
-40 164 0 6 91 130 117 159 2 3 32 -25 67 -61 152 -154 258 -219 372 -226 68
-5 101 7 113 41 13 33 -1 50 -87 110 -79 55 -286 246 -322 297 -19 26 -19 27
1 68 12 23 18 46 14 52 -8 13 -43 4 -67 -17 -23 -21 -36 -11 -158 113 -132
134 -205 184 -269 184 -25 -1 -61 -7 -79 -15z m348 -466 c0 -13 -80 -109 -91
-109 -4 0 -14 19 -22 43 -8 23 -36 101 -61 172 l-46 130 110 -113 c61 -62 110
-118 110 -123z"/>
<path d="M2543 7905 c-17 -7 -39 -27 -47 -43 -14 -27 -14 -36 0 -88 8 -32 35
-101 61 -153 49 -102 143 -321 143 -332 0 -4 -61 18 -136 48 -233 93 -345 111
-445 73 -49 -18 -99 -54 -99 -71 0 -5 19 -25 42 -46 24 -21 61 -56 83 -77 22
-22 65 -62 95 -90 30 -27 118 -109 195 -181 298 -279 306 -285 370 -285 44 0
95 34 95 64 0 26 -75 109 -244 270 -92 88 -171 167 -176 177 -7 12 18 5 98
-28 156 -65 238 -93 269 -93 32 0 91 33 99 55 4 9 -41 110 -100 229 -58 118
-106 218 -106 222 0 4 38 -31 84 -78 139 -143 321 -287 431 -342 82 -42 106
-49 154 -49 58 0 90 11 129 46 35 32 27 44 -30 49 -90 7 -189 87 -538 433
-147 146 -272 261 -295 272 -56 28 -95 34 -132 18z"/>
<path d="M9287 7596 c-96 -35 -166 -109 -192 -200 -8 -28 -19 -109 -25 -181
-18 -200 -37 -263 -104 -333 -67 -72 -121 -80 -184 -26 -73 63 -76 152 -6 213
36 32 58 39 69 21 12 -19 25 1 25 36 0 24 -8 43 -26 61 -22 22 -32 25 -75 21
-98 -10 -157 -102 -146 -229 11 -127 88 -243 195 -292 63 -29 168 -28 233 1
129 57 197 197 204 422 6 177 14 230 41 272 27 43 88 78 135 78 35 0 98 -54
100 -86 4 -59 -14 -87 -67 -106 -29 -10 -34 -17 -34 -44 0 -58 82 -95 141 -64
61 33 81 172 39 268 -53 122 -217 207 -323 168z"/>
<path d="M1902 7109 c-51 -25 -71 -53 -138 -184 -28 -55 -73 -143 -100 -195
-27 -52 -70 -140 -96 -195 -25 -55 -67 -128 -92 -163 -25 -34 -46 -64 -46 -67
0 -3 19 -5 43 -5 83 0 183 68 216 147 13 31 13 31 47 17 18 -8 69 -37 113 -65
85 -54 121 -103 121 -165 -1 -42 -32 -126 -60 -161 -22 -27 -69 -63 -83 -63
-3 0 -17 24 -30 54 -39 85 -133 136 -251 136 -133 0 -273 -115 -297 -245 -15
-84 34 -240 84 -267 47 -25 147 18 147 62 0 9 -11 45 -26 79 -57 141 -50 232
21 265 97 46 175 -93 175 -313 l0 -91 69 0 c54 0 74 4 94 20 32 25 47 74 41
133 -5 40 -2 47 26 71 38 31 77 33 128 7 94 -48 147 -138 147 -246 -1 -120
-70 -227 -184 -282 -52 -26 -67 -28 -203 -32 -138 -3 -147 -4 -152 -24 -8 -33
9 -44 87 -58 151 -25 345 9 457 81 145 93 236 276 209 424 -26 152 -122 243
-282 270 l-68 12 49 41 c27 23 55 57 62 75 8 18 14 34 15 36 1 1 49 -20 106
-47 162 -77 191 -84 270 -71 69 12 117 44 106 72 -3 7 -72 47 -153 88 -82 41
-192 100 -244 131 -212 125 -367 213 -408 230 l-42 18 13 33 c34 79 72 148 82
148 6 0 43 -21 81 -48 38 -26 180 -116 316 -200 206 -127 258 -155 315 -168
37 -8 81 -13 98 -10 38 8 105 52 105 70 0 8 -20 21 -44 29 -25 8 -68 33 -98
55 -121 89 -540 347 -614 378 -21 9 -47 23 -59 32 l-22 17 28 60 c16 33 29 68
29 78 0 24 -54 23 -108 -4z"/>
<path d="M9742 7093 c-3 -10 -7 -45 -7 -78 0 -52 5 -68 37 -120 44 -71 59 -55
-142 -167 -403 -225 -525 -306 -567 -375 -27 -45 -31 -114 -7 -137 14 -14 19
-13 52 8 20 13 64 36 97 51 33 16 76 39 96 51 32 20 122 70 409 227 30 16 85
47 122 68 36 22 71 39 77 39 5 0 35 -33 66 -74 31 -41 76 -98 102 -126 38 -42
48 -48 60 -38 29 23 13 125 -34 220 -45 89 -204 326 -280 414 -47 56 -69 66
-81 37z"/>
<path d="M9553 6227 c-4 -6 -9 -27 -13 -47 -7 -43 -21 -47 -182 -49 -64 0
-128 -5 -142 -11 -34 -13 -34 -45 1 -67 23 -15 55 -19 195 -22 l169 -3 37 -52
c48 -66 74 -107 70 -110 -2 -2 -41 -28 -88 -59 -93 -60 -191 -143 -233 -196
-33 -42 -44 -109 -25 -159 16 -43 44 -53 64 -23 31 44 337 244 417 272 31 11
43 11 70 0 80 -33 94 -24 57 36 l-19 32 77 42 c125 67 238 146 272 189 37 46
50 128 28 170 -13 23 -17 24 -98 22 -47 -2 -161 -9 -255 -17 -93 -8 -204 -15
-245 -16 l-75 -2 -25 36 c-28 41 -46 52 -57 34z m514 -153 c-15 -15 -271 -154
-283 -154 -8 0 -14 4 -14 10 0 5 -14 32 -31 60 -17 28 -29 53 -27 55 2 3 76
11 164 18 206 18 198 18 191 11z"/>
<path d="M3011 5806 c-6 -7 -15 -34 -20 -59 -4 -26 -14 -54 -21 -62 -7 -8 -10
-25 -7 -37 4 -16 -3 -32 -23 -55 -26 -29 -36 -33 -78 -33 -26 0 -53 -5 -59
-11 -15 -15 -53 6 -53 30 0 12 -9 20 -27 24 -16 3 -37 8 -48 12 -17 5 -24 -1
-38 -30 -9 -20 -17 -42 -17 -49 0 -8 -13 -19 -30 -26 -16 -7 -35 -18 -41 -26
-9 -11 -6 -14 18 -14 27 0 53 -15 53 -31 0 -4 -27 -12 -60 -17 -54 -10 -124
-42 -92 -42 7 0 11 -4 8 -9 -12 -19 6 -43 29 -37 20 5 22 2 20 -25 -1 -18 -13
-41 -29 -55 -32 -30 -33 -42 -3 -54 17 -7 18 -9 4 -9 -10 -1 -22 -12 -27 -26
-10 -27 -38 -33 -58 -13 -7 7 -12 8 -12 3 0 -6 -4 -4 -9 4 -12 18 -53 -3 -45
-24 5 -12 16 -14 52 -9 l46 6 -17 -26 c-24 -36 -22 -39 18 -32 23 5 35 3 35
-4 0 -7 -19 -10 -47 -9 -27 1 -55 0 -63 -2 -10 -3 -18 7 -24 28 -11 34 -26 41
-83 34 -36 -4 -44 -24 -15 -40 16 -10 16 -10 0 -11 -10 0 -18 -7 -18 -15 0 -8
5 -15 10 -15 6 0 10 -18 10 -39 0 -22 5 -43 11 -46 5 -4 8 -26 6 -51 -3 -37
-1 -44 15 -44 10 0 18 -4 18 -10 0 -14 -10 -13 -42 4 -16 8 -28 10 -28 5 0 -6
-7 -6 -19 0 -14 8 -24 6 -41 -9 -13 -11 -35 -20 -49 -21 -36 -1 -138 -23 -147
-31 -4 -4 5 -12 20 -17 32 -13 33 -24 4 -51 -19 -18 -22 -30 -20 -95 1 -53 7
-86 22 -114 15 -30 16 -39 6 -35 -12 5 -12 0 -2 -28 18 -52 24 -57 59 -51 24
4 37 0 51 -16 11 -12 25 -21 33 -21 7 0 13 -9 13 -20 0 -13 5 -18 15 -14 8 4
15 2 15 -3 0 -15 47 -63 54 -56 5 6 7 -2 6 -22 -1 -3 7 -13 15 -22 25 -24 92
-34 156 -21 45 8 71 7 125 -6 73 -16 124 -36 124 -48 0 -4 15 -10 34 -14 19
-3 49 -16 66 -29 l32 -23 -21 -21 c-27 -27 -12 -35 56 -26 43 5 54 4 51 -6 -2
-7 -20 -17 -39 -22 -19 -5 -40 -15 -48 -22 -23 -22 15 -32 39 -10 14 13 23 14
37 6 10 -6 12 -11 6 -11 -16 0 -18 -111 -2 -127 8 -8 6 -20 -6 -43 -9 -17 -14
-34 -11 -38 3 -3 0 -12 -8 -21 -7 -9 -16 -38 -20 -65 -3 -29 -15 -59 -26 -71
-35 -37 -17 -64 20 -30 14 12 23 13 49 4 24 -9 35 -9 44 0 6 6 21 11 33 11 13
0 30 10 39 23 13 18 17 20 25 7 14 -22 31 0 37 49 3 25 1 46 -7 55 -6 9 -9 20
-5 26 11 18 25 11 25 -12 1 -22 1 -22 12 -3 6 11 12 21 13 23 6 7 75 -70 75
-83 0 -21 -18 -19 -23 3 -3 9 -5 4 -6 -13 -1 -16 -11 -46 -23 -65 -12 -19 -21
-43 -19 -52 1 -11 -4 -18 -15 -18 -14 0 -14 -2 -3 -16 11 -14 9 -19 -11 -35
-14 -10 -19 -19 -12 -19 7 0 20 -6 27 -14 12 -11 12 -16 2 -24 -7 -6 -14 -24
-15 -41 -3 -38 18 -50 80 -44 26 2 49 0 53 -6 3 -6 3 -11 -2 -11 -17 0 -60
-46 -55 -59 4 -11 -3 -13 -34 -8 -43 7 -71 -8 -54 -29 8 -9 8 -18 -2 -33 -11
-18 -10 -22 6 -34 18 -13 17 -14 -15 -21 -32 -7 -33 -8 -11 -16 20 -9 45 -10
123 -9 14 0 32 -1 40 -3 9 -2 14 5 13 20 -1 27 8 28 31 2 13 -15 27 -18 53
-15 20 2 40 9 46 15 5 5 23 10 38 10 15 0 28 5 28 10 0 6 13 10 29 10 16 0 34
7 41 16 11 13 10 16 -10 21 -22 6 -23 7 -4 14 13 6 3 8 -30 7 -34 -1 -51 3
-57 13 -4 9 -17 27 -28 40 -17 19 -22 21 -30 10 -7 -10 -11 -6 -16 17 -3 17
-13 36 -21 42 -7 7 -19 30 -24 52 -6 21 -14 46 -17 55 -5 13 -3 13 20 -1 14
-10 34 -17 44 -16 32 4 43 0 43 -14 0 -8 9 -18 20 -21 11 -4 20 -15 20 -26 0
-11 8 -23 18 -26 9 -4 25 -16 36 -27 13 -15 20 -17 23 -8 3 6 9 10 14 7 5 -4
8 6 7 21 -2 14 -7 28 -13 29 -47 13 -47 14 -31 37 20 28 20 39 0 31 -25 -9
-94 27 -94 50 0 19 1 19 26 2 21 -14 28 -14 34 -4 7 10 11 10 24 0 8 -7 19
-10 24 -7 6 3 15 -1 22 -9 11 -13 16 -12 39 4 20 14 39 18 75 15 51 -4 78 -17
119 -58 29 -29 96 -49 131 -40 15 3 34 -1 49 -11 24 -15 26 -15 41 7 9 12 16
35 16 50 0 16 8 33 21 42 12 8 18 19 15 24 -13 21 29 22 56 2 15 -11 28 -16
28 -10 0 17 38 11 52 -9 8 -11 25 -18 43 -18 16 0 31 -6 33 -12 2 -6 8 -9 12
-6 5 3 14 -4 20 -16 10 -17 8 -25 -12 -47 -34 -39 -41 -42 -59 -26 -20 18 -43
18 -59 -1 -9 -10 -16 -12 -24 -6 -26 22 -110 -27 -99 -56 6 -15 -13 -18 -22
-3 -12 19 -67 42 -83 34 -32 -14 -80 -13 -92 1 -10 12 -16 11 -41 -7 -20 -15
-27 -28 -23 -40 4 -13 0 -18 -15 -18 -11 0 -22 4 -25 9 -3 4 -16 6 -29 4 -18
-4 -27 3 -42 31 -25 46 -38 50 -70 20 -14 -13 -30 -24 -36 -24 -5 0 -9 -15 -7
-34 1 -23 6 -32 15 -29 20 8 42 -15 36 -37 -4 -14 0 -20 11 -20 9 0 16 7 16
15 0 17 32 20 61 5 13 -7 19 -7 19 0 0 21 36 9 64 -21 17 -18 36 -29 46 -26
10 2 26 0 36 -6 18 -9 18 -9 -1 13 -14 16 -16 24 -7 27 6 3 12 12 12 20 0 11
5 13 18 8 9 -4 29 -10 44 -13 35 -6 56 -28 40 -44 -8 -8 -18 -9 -36 0 -20 9
-26 8 -32 -6 -4 -9 -6 -25 -5 -34 1 -10 -3 -18 -8 -18 -6 0 -10 3 -9 8 2 4 -1
7 -7 7 -5 0 -9 -8 -8 -17 2 -10 -2 -18 -7 -18 -6 0 -10 -4 -10 -9 0 -5 8 -7
18 -5 9 3 26 -2 37 -11 17 -14 17 -16 3 -11 -10 3 -18 2 -18 -3 0 -5 -11 -12
-25 -15 -15 -4 -24 -13 -23 -24 3 -44 -2 -52 -34 -52 -30 0 -31 -1 -12 -15 19
-15 19 -16 -3 -31 -13 -9 -23 -22 -23 -29 0 -7 -10 -11 -24 -10 -32 4 -24 -23
10 -31 13 -3 24 -9 24 -13 0 -12 68 -82 82 -85 7 -1 22 -7 33 -13 11 -6 35
-14 53 -18 52 -11 64 -39 54 -126 -8 -66 -7 -77 10 -101 11 -16 17 -32 13 -37
-3 -5 -1 -13 5 -16 6 -4 8 -15 5 -25 -15 -49 53 -115 108 -105 29 6 34 3 56
-34 14 -22 32 -42 40 -46 9 -3 27 -12 41 -20 30 -17 99 -19 133 -4 20 9 30 7
60 -13 20 -12 41 -36 47 -51 5 -16 24 -42 41 -58 36 -34 91 -39 121 -12 12 11
39 18 70 20 54 2 72 16 83 65 3 14 22 43 42 63 19 20 33 39 30 42 -8 8 -77
-67 -77 -83 0 -7 -9 -18 -20 -24 -20 -10 -30 3 -11 14 5 3 11 17 13 31 6 30
-14 61 -32 50 -10 -6 -9 -9 1 -17 11 -7 9 -8 -6 -6 -11 2 -21 12 -23 23 -6 40
-91 70 -122 42 -12 -10 -12 -9 -1 5 16 21 8 48 -14 48 -19 0 -20 19 0 26 23 9
18 29 -10 42 -14 6 -25 16 -25 22 0 5 -13 10 -30 10 -16 0 -43 8 -59 18 -28
17 -29 19 -11 30 11 6 26 9 35 6 8 -3 15 -1 15 5 0 7 -6 13 -12 15 -86 22
-122 42 -111 60 4 6 8 13 9 16 0 3 4 13 9 24 5 11 3 21 -4 26 -20 11 -9 54 14
58 38 7 74 72 40 72 -9 0 -25 9 -37 20 -12 11 -18 20 -13 20 5 0 -1 7 -13 16
-13 9 -57 20 -98 25 -56 7 -88 18 -131 44 -31 19 -69 37 -84 40 -15 4 -33 13
-40 21 -6 8 -18 14 -26 14 -8 0 -29 11 -47 25 -18 14 -38 25 -45 25 -7 0 -11
5 -9 11 3 10 169 69 195 69 7 0 56 21 110 46 54 26 121 55 148 65 28 10 82 30
120 44 153 57 223 77 280 82 62 5 122 27 294 111 l95 45 -55 19 c-121 43 -212
64 -278 67 -30 1 -62 6 -72 12 -10 5 -30 9 -45 9 -15 0 -37 9 -48 19 -32 29
-125 61 -179 61 -56 0 -100 22 -117 59 -6 14 -20 31 -31 39 -11 8 -19 25 -19
43 0 29 -37 79 -58 79 -20 0 -34 -31 -28 -60 3 -17 2 -30 -2 -30 -10 0 -52
101 -52 126 0 26 -27 39 -46 23 -7 -6 -16 -26 -20 -45 -7 -40 -19 -50 -39 -34
-8 7 -23 10 -34 7 -16 -4 -19 3 -23 58 -7 81 -30 127 -73 148 -34 16 -36 16
-47 -3 -23 -36 -66 -17 -82 38 -9 29 -27 28 -56 -3 -22 -24 -23 -28 -11 -62
12 -32 12 -38 -4 -49 -13 -10 -25 -9 -62 4 -50 19 -65 39 -40 54 23 12 21 38
-5 88 -16 29 -31 43 -49 47 -19 4 -29 13 -34 32 -7 28 -32 61 -48 61 -5 0 -6
-12 -3 -26 6 -22 4 -25 -16 -22 -19 2 -24 -2 -26 -27 -2 -16 -13 -37 -24 -46
-18 -14 -19 -18 -7 -37 12 -19 11 -24 -4 -39 -16 -16 -19 -15 -53 20 -38 38
-71 48 -80 22 -4 -9 -15 -12 -33 -9 -31 6 -54 -15 -66 -61 -5 -16 -9 -33 -10
-37 -2 -5 -3 -12 -4 -18 0 -5 -9 -6 -18 -3 -15 6 -15 7 1 13 17 6 17 7 2 23
-9 9 -16 20 -15 24 4 26 -3 30 -41 23 -62 -11 -66 -2 -101 280 -27 213 -8 635
36 810 8 30 16 71 18 90 6 45 39 174 71 272 l26 77 -21 68 c-37 126 -45 137
-68 109z m-316 -306 c-3 -5 -10 -10 -16 -10 -5 0 -9 5 -9 10 0 6 7 10 16 10 8
0 12 -4 9 -10z m-355 -479 c-6 -12 -15 -21 -20 -21 -6 0 -10 -7 -10 -16 0 -27
-24 -9 -31 22 -5 28 -4 30 23 28 15 -1 31 2 34 8 12 18 16 0 4 -21z m323 -18
c15 -9 -16 -33 -42 -33 -37 0 -56 14 -39 27 26 20 50 22 81 6z m-207 -68 c4
-8 10 -12 15 -9 5 3 6 10 3 16 -4 7 -2 8 4 4 19 -12 14 -46 -6 -46 -10 0 -23
-5 -29 -11 -21 -21 -40 -3 -35 30 3 22 10 31 23 31 11 0 22 -7 25 -15z m478
-900 c3 -8 1 -15 -4 -15 -6 0 -10 7 -10 15 0 8 2 15 4 15 2 0 6 -7 10 -15z
m93 -59 c-2 -5 -14 -10 -28 -12 -29 -3 -72 6 -65 14 3 3 2 10 -4 17 -6 8 0 10
24 7 20 -2 37 1 41 9 6 9 11 7 22 -7 7 -10 12 -23 10 -28z m105 -114 c23 -6
40 -6 46 0 20 20 106 25 242 14 71 -6 88 -11 105 -31 17 -19 38 -30 75 -40 3
-1 12 -4 20 -8 8 -3 31 -8 50 -11 118 -18 260 -68 260 -91 0 -5 16 -17 34 -26
31 -14 33 -14 29 2 -4 15 3 18 53 21 l59 3 -65 18 c-36 10 -82 23 -104 28 -50
13 -104 41 -88 46 7 3 34 -3 60 -12 26 -9 99 -27 162 -40 63 -13 142 -31 175
-41 l60 -18 -35 -6 -35 -6 40 -13 c22 -8 53 -23 68 -33 15 -11 35 -17 43 -14
10 4 13 2 8 -6 -5 -8 -2 -9 11 -5 10 5 38 -3 69 -17 28 -14 64 -28 79 -31 15
-3 31 -13 34 -22 8 -20 -21 -43 -48 -36 -11 3 -28 -2 -39 -12 -15 -13 -28 -16
-57 -10 -21 4 -57 6 -81 6 -29 0 -45 5 -49 14 -6 17 -43 20 -43 4 0 -6 -14 -1
-30 11 -17 12 -38 19 -46 16 -24 -9 -124 43 -137 71 -10 23 -15 25 -57 19
-124 -18 -128 -18 -157 2 -15 11 -49 23 -75 27 -35 4 -49 11 -53 26 -4 11 -17
27 -30 35 -13 9 -25 25 -27 37 -2 16 -16 25 -58 37 -30 9 -70 24 -88 34 -24
12 -53 17 -100 15 -88 -3 -261 12 -268 23 -10 16 -46 -13 -41 -33 3 -10 2 -19
-1 -19 -10 0 -42 81 -42 104 0 18 1 18 18 -1 9 -12 34 -25 54 -31z m98 -149
c-8 -3 -21 -10 -27 -16 -9 -7 -13 -5 -13 7 0 11 8 16 28 15 15 0 21 -3 12 -6z
m1340 -109 c0 -8 -19 -13 -24 -6 -3 5 1 9 9 9 8 0 15 -2 15 -3z m60 -1406 c0
-6 -7 -7 -16 -4 -9 3 -22 6 -30 6 -9 0 -13 4 -10 9 7 11 56 2 56 -11z m85 -78
c3 -5 -1 -10 -9 -10 -9 0 -16 5 -16 10 0 6 4 10 9 10 6 0 13 -4 16 -10z"/>
<path d="M4235 3520 c3 -5 11 -10 16 -10 6 0 7 5 4 10 -3 6 -11 10 -16 10 -6
0 -7 -4 -4 -10z"/>
<path d="M8697 5737 c-29 -80 -28 -92 7 -199 51 -151 105 -434 118 -618 13
-186 5 -617 -12 -634 -14 -14 -40 18 -40 48 0 27 -41 86 -61 86 -17 0 -59 -36
-59 -50 0 -26 -20 -6 -26 25 -7 40 -46 78 -99 95 -26 8 -39 21 -50 46 -16 39
-30 43 -45 14 -17 -32 -40 -25 -40 13 l0 32 73 -3 c61 -2 113 8 97 20 -3 2
-26 20 -52 41 -44 35 -76 51 -50 25 28 -28 25 -28 -138 -14 -41 3 -161 8 -267
11 -106 3 -204 10 -217 15 -14 5 -92 12 -173 15 -82 3 -179 8 -218 10 -53 3
-74 0 -87 -11 -33 -30 -47 -17 -201 180 -26 33 -80 99 -120 146 -40 47 -118
141 -172 210 -172 217 -203 254 -235 285 l-32 30 -21 -25 c-41 -48 -103 -133
-174 -240 -20 -30 -55 -78 -77 -106 -23 -28 -59 -77 -81 -109 -22 -32 -56 -77
-76 -99 -20 -23 -81 -97 -136 -166 -55 -69 -107 -131 -116 -139 -28 -23 -8
-32 61 -30 37 1 67 1 66 -2 -2 -18 -25 -40 -60 -57 -39 -20 -75 -52 -58 -52 5
0 31 15 57 34 53 38 93 52 110 38 7 -5 39 -13 71 -17 78 -9 88 -14 81 -36 -6
-18 0 -19 93 -19 54 0 102 -3 106 -7 4 -4 28 -8 54 -9 107 -5 119 -8 102 -29
-11 -13 -6 -15 34 -15 25 0 46 -3 46 -6 0 -3 -9 -19 -21 -35 -24 -34 -9 -40
18 -6 33 41 55 51 114 57 65 6 71 -1 37 -37 -12 -13 -18 -26 -15 -30 11 -10
57 15 57 32 0 39 63 49 203 33 24 -3 22 -7 -23 -56 -22 -24 -40 -50 -40 -58 0
-11 -25 -14 -132 -14 -73 0 -221 -5 -328 -10 -230 -11 -676 -24 -842 -25 -76
0 -118 -4 -118 -10 0 -22 26 -35 71 -35 55 0 62 -7 80 -80 7 -30 16 -59 20
-65 4 -5 8 -80 9 -165 0 -85 5 -159 10 -164 5 -5 16 -6 24 -3 13 5 16 22 16
78 0 52 3 70 13 66 8 -3 11 -24 9 -71 -2 -60 -1 -66 18 -66 18 0 20 6 20 75 0
43 4 75 10 75 6 0 10 -32 10 -76 l0 -75 28 3 c27 3 27 3 24 71 -2 52 0 68 10
65 8 -3 15 -29 18 -68 7 -90 30 -94 30 -6 0 52 3 66 15 66 12 0 15 -14 15 -66
0 -55 3 -65 16 -62 13 2 17 16 18 68 1 76 16 89 33 28 l11 -43 1 48 c1 39 4
47 20 47 10 0 22 -8 26 -17 6 -16 8 -15 16 5 5 13 6 28 3 34 -4 6 -77 8 -189
6 -101 -1 -187 1 -191 5 -4 4 -3 12 4 19 8 8 9 49 5 139 l-6 127 124 -1 124
-2 6 -70 c4 -49 6 -57 7 -27 3 56 18 53 66 -13 21 -30 43 -52 48 -49 4 3 6 10
2 15 -3 6 -3 36 1 67 6 48 9 53 18 37 8 -13 14 -98 17 -225 4 -155 8 -205 18
-204 6 1 27 2 45 4 l32 2 -27 11 -28 11 0 112 c0 104 2 113 20 119 11 4 33 4
48 0 15 -3 49 -6 74 -7 l47 -1 -2 -121 -2 -121 75 0 75 0 5 190 c3 105 9 185
13 178 4 -7 10 -92 12 -190 5 -168 6 -178 25 -181 19 -3 20 2 20 77 0 58 4 81
13 81 19 0 34 -13 40 -35 4 -18 5 -18 6 3 1 27 29 41 42 21 5 -8 9 -25 10 -39
1 -27 4 -22 13 23 6 27 38 38 51 18 3 -5 21 -7 40 -4 29 5 35 3 35 -13 0 -16
2 -16 20 4 41 44 31 47 -125 44 -128 -3 -146 -1 -151 13 -11 27 19 46 89 58
64 11 90 8 190 -20 15 -4 17 4 17 65 0 96 9 136 26 121 11 -9 14 -54 14 -209
0 -244 10 -229 -156 -236 -159 -8 -418 -10 -765 -6 -157 2 -303 0 -326 -4 -47
-7 -68 10 -38 32 15 12 18 30 18 141 l0 127 -34 28 c-18 15 -36 28 -39 28 -3
0 -18 -11 -33 -25 -28 -26 -34 -58 -17 -85 7 -12 11 -8 16 18 7 35 24 44 24
12 0 -22 16 -27 22 -8 2 6 12 9 20 5 13 -5 16 -18 13 -64 -1 -32 -3 -71 -4
-87 -1 -28 -1 -28 -27 -11 -21 14 -28 14 -41 3 -13 -10 -17 -10 -20 -1 -3 9
-17 11 -44 7 -39 -6 -46 0 -40 38 0 4 -14 2 -32 -4 -46 -16 -107 -82 -107
-116 -1 -26 -30 -72 -47 -72 -4 0 -14 14 -21 30 -8 17 -17 30 -22 30 -4 0 -20
-23 -34 -51 -14 -29 -36 -57 -48 -64 -18 -9 -22 -19 -20 -43 1 -21 -5 -39 -18
-52 -11 -11 -20 -26 -20 -33 0 -8 -11 -19 -25 -25 -24 -11 -35 -32 -17 -32 5
0 35 9 68 19 207 66 340 101 365 96 15 -3 30 -1 34 4 3 6 17 11 31 11 21 0 24
-3 18 -26 -6 -24 -5 -26 17 -19 54 15 66 26 64 58 -1 18 -5 40 -9 49 -4 9 -6
27 -4 40 2 19 8 23 33 21 17 -1 92 -4 167 -5 75 -2 139 -6 143 -10 12 -12
-182 -49 -252 -48 -35 0 -40 -9 -22 -43 15 -27 28 -37 52 -37 12 0 16 4 11 13
-5 7 -1 6 10 -3 28 -22 86 -20 119 4 26 19 43 21 165 22 176 2 174 2 167 14
-3 6 -37 10 -74 10 -82 0 -161 10 -161 20 0 17 74 20 225 9 88 -6 171 -15 185
-19 l25 -8 -26 -1 c-42 -1 -89 -13 -89 -22 0 -4 21 -17 47 -29 31 -14 43 -24
36 -31 -6 -6 -18 -6 -35 0 -28 11 -384 8 -395 -3 -3 -3 3 -6 14 -6 11 0 23 -3
27 -7 4 -5 25 -8 47 -8 21 0 39 3 39 8 0 4 20 7 44 7 34 0 44 -3 42 -16 -3
-20 -51 -64 -71 -64 -8 0 -15 -4 -15 -8 0 -5 14 -7 30 -4 18 3 30 0 30 -7 0
-6 4 -11 10 -11 5 0 7 6 4 13 -7 19 17 44 50 51 21 5 27 4 23 -6 -21 -53 -21
-51 1 -37 12 7 20 22 19 33 -2 17 8 22 72 33 41 7 93 21 115 32 55 27 145 53
156 46 5 -3 46 6 90 21 55 18 91 24 112 20 24 -5 37 -1 53 14 13 13 42 23 73
27 29 3 52 10 52 14 0 5 -4 9 -10 9 -5 0 -10 6 -10 14 0 8 17 16 46 20 43 5
87 18 193 54 40 14 44 13 63 -6 l20 -20 -48 -15 c-27 -8 -71 -18 -99 -21 -35
-5 -58 -14 -80 -35 -16 -16 -40 -32 -51 -35 -12 -4 -30 -16 -40 -28 -16 -18
-16 -20 -3 -15 12 4 28 -7 52 -34 26 -29 43 -39 65 -39 30 0 30 0 28 57 -1 40
3 58 13 61 8 3 11 0 7 -7 -4 -6 -2 -11 3 -11 6 0 11 4 11 8 0 5 16 9 35 10 19
1 48 8 64 17 40 20 55 19 46 -2 -5 -15 -4 -16 7 -5 11 11 10 16 -5 27 -18 13
-18 14 0 22 10 5 31 8 47 7 41 -4 143 21 161 40 9 9 27 16 40 16 15 0 25 7 28
21 5 19 10 21 44 14 21 -3 40 -11 41 -16 7 -18 20 -9 15 10 -4 16 2 21 30 26
19 4 50 4 70 1 20 -3 39 -1 42 4 8 13 45 13 45 0 0 -15 41 -12 74 5 16 9 36
13 43 11 8 -3 13 2 13 15 0 21 -5 21 120 7 19 -2 25 2 25 16 0 16 14 23 74 37
40 10 108 19 150 20 42 1 87 7 101 12 14 5 41 13 60 17 31 7 28 8 -23 9 -32 0
-66 -3 -75 -8 -28 -15 -112 -23 -112 -11 0 6 8 13 18 16 9 4 41 17 70 31 40
19 61 23 85 18 41 -9 131 -9 181 0 l39 8 -6 -59 c-4 -33 -10 -70 -14 -83 -5
-21 -3 -23 15 -19 12 4 22 3 22 -2 0 -10 -29 -22 -40 -15 -8 5 -81 -177 -83
-205 0 -8 0 -38 1 -66 2 -49 4 -53 38 -69 40 -19 64 -14 64 13 0 11 7 25 16
32 10 9 14 24 11 47 -3 18 -1 33 4 33 5 0 9 8 9 18 0 14 3 13 18 -6 27 -35 63
-27 74 16 9 35 52 68 101 79 15 3 27 9 27 14 0 5 10 9 23 9 18 0 19 2 7 10 -8
6 -27 7 -42 4 -31 -6 -68 3 -68 17 0 5 11 9 24 9 14 0 28 5 31 10 3 6 15 10
26 10 10 0 19 3 19 8 0 4 12 14 26 23 l25 15 -40 27 c-22 15 -44 27 -49 27 -4
0 -6 15 -4 33 2 21 -2 39 -12 49 -8 9 -12 24 -9 37 5 18 1 21 -25 21 -32 0
-50 14 -32 25 5 3 10 15 10 25 0 25 46 56 77 52 13 -2 23 1 23 6 0 5 9 12 20
15 26 7 36 35 22 58 -15 24 -15 29 1 29 16 0 59 -35 58 -46 0 -5 17 -7 38 -5
21 1 42 -2 46 -8 8 -14 65 -14 65 -1 0 5 -11 17 -25 26 -18 12 -24 22 -20 35
4 13 1 19 -9 19 -8 0 -18 9 -21 20 -3 11 -11 20 -16 20 -5 0 -9 27 -9 60 0 60
0 60 30 60 18 0 39 -10 54 -25 14 -14 36 -25 49 -25 26 0 117 54 117 69 0 6
17 13 38 17 20 3 47 16 60 27 20 18 26 19 43 8 12 -7 24 -9 27 -6 4 4 8 48 8
98 1 78 -2 100 -22 143 -13 28 -24 56 -24 62 0 20 -74 72 -102 72 -16 0 -28 5
-28 10 0 17 -26 11 -53 -13 -15 -12 -27 -32 -27 -44 0 -12 -6 -25 -12 -30 -16
-9 -60 -5 -72 8 -6 5 -20 9 -32 9 -12 0 -36 14 -52 30 -26 26 -38 30 -85 30
-40 0 -56 4 -61 15 -4 11 -21 15 -66 15 -61 0 -81 14 -34 26 35 9 29 45 -9 55
-66 18 -77 53 -13 44 39 -6 45 -5 51 14 9 29 -1 41 -34 41 -16 0 -37 10 -50
24 l-23 24 28 4 c44 5 42 33 -5 76 -38 35 -54 72 -31 72 6 0 15 10 19 23 8 18
3 28 -27 55 -31 28 -33 33 -14 29 28 -6 28 -3 -3 50 -24 40 -35 48 -59 44 -13
-3 -26 20 -26 44 1 20 1 20 15 1 19 -25 19 -11 -1 61 -9 32 -19 70 -21 86 -8
42 -19 41 -36 -6z m-1949 -478 c35 -35 44 -39 57 -29 13 11 18 10 31 -8 8 -12
21 -27 28 -35 22 -22 -61 -44 -193 -52 -99 -6 -112 -5 -105 8 12 21 128 157
134 157 3 0 24 -19 48 -41z m47 -19 c3 -5 1 -10 -4 -10 -6 0 -11 5 -11 10 0 6
2 10 4 10 3 0 8 -4 11 -10z m63 -145 c19 -4 36 -19 55 -50 14 -25 31 -45 37
-45 14 0 12 16 -4 33 -8 8 -16 23 -18 33 -2 10 -7 22 -13 26 -5 4 -6 10 -2 14
4 4 15 -1 25 -12 38 -42 82 -102 82 -113 0 -6 5 -11 11 -11 12 0 58 -47 91
-93 12 -17 16 -27 9 -22 -9 5 -12 3 -9 -6 3 -8 12 -13 21 -11 12 2 15 -2 10
-14 -4 -11 -3 -15 5 -10 11 7 39 -18 73 -65 17 -24 17 -28 3 -33 -8 -3 -24 -1
-35 5 -17 9 -20 7 -17 -8 3 -15 -5 -18 -47 -20 -27 -1 -90 -7 -140 -12 -49 -6
-237 -14 -417 -17 -287 -6 -328 -5 -328 8 0 16 62 108 103 152 15 16 27 35 27
42 0 8 15 31 33 51 18 21 45 58 59 83 44 77 76 93 198 101 102 6 129 5 188 -6z
m-552 -287 c-16 -22 -16 -22 -16 -1 0 12 6 23 13 26 19 7 20 0 3 -25z m-165
-92 c-6 -8 -9 -21 -5 -29 4 -12 0 -15 -15 -14 -27 2 -26 11 1 56 18 28 23 32
26 18 2 -10 -1 -24 -7 -31z m1124 -67 c3 -4 -22 -30 -55 -59 -48 -42 -63 -49
-77 -41 -11 5 -25 9 -33 8 -25 -3 -27 18 -2 21 32 5 27 21 -8 28 l-30 6 23 18
c12 10 31 20 42 23 29 8 135 5 140 -4z m901 -140 c16 -5 58 -11 94 -13 37 -2
72 -6 77 -9 29 -18 45 -190 19 -200 -7 -3 -18 -1 -23 4 -5 5 -33 6 -63 2 -30
-3 -49 -8 -42 -11 6 -2 12 -9 12 -15 -1 -16 -50 -75 -50 -59 0 20 -21 14 -27
-8 -6 -23 -16 -25 -32 -6 -9 10 -8 16 4 26 19 16 19 30 0 30 -8 0 -15 -7 -15
-15 0 -25 -33 -36 -64 -20 -15 8 -42 13 -59 12 -28 -2 -34 2 -49 33 -10 19
-17 45 -18 58 0 26 26 40 43 23 15 -15 27 -14 27 3 0 8 10 18 22 22 13 4 35
20 50 36 23 25 30 28 48 18 12 -6 24 -18 27 -26 6 -17 39 -19 47 -1 5 10 7 10
12 0 3 -7 10 -13 16 -13 5 0 8 6 5 13 -2 6 10 20 27 30 l31 18 -59 -5 c-42 -3
-68 0 -89 10 -21 11 -40 14 -66 8 -20 -5 -45 -7 -55 -6 -11 1 -27 -6 -36 -16
-12 -13 -29 -18 -54 -16 -38 3 -76 -19 -76 -43 0 -17 -15 -17 -28 0 -6 7 -7
28 -2 57 5 29 5 47 -2 51 -6 4 -5 9 3 15 8 4 15 2 17 -5 4 -11 6 -10 13 0 6
10 42 16 126 20 65 3 128 6 140 7 12 1 34 -3 49 -9z m290 -45 c-6 -16 -34 -30
-42 -21 -4 3 1 16 9 28 9 11 13 29 10 38 -3 9 2 6 12 -7 9 -13 14 -30 11 -38z
m-806 -59 c0 -24 -5 -35 -15 -35 -10 0 -15 11 -15 35 0 24 5 35 15 35 10 0 15
-11 15 -35z m70 0 c0 -24 -5 -35 -15 -35 -10 0 -15 11 -15 35 0 24 5 35 15 35
10 0 15 -11 15 -35z m-166 -1 c13 -5 16 -24 16 -104 0 -68 4 -101 13 -108 7
-6 39 -10 70 -8 40 2 57 -1 57 -10 0 -20 29 -25 71 -13 21 7 39 13 39 15 0 1
-4 14 -10 28 -7 18 -14 24 -26 19 -13 -5 -15 -2 -10 13 3 10 6 36 8 56 1 20 6
34 10 32 4 -3 8 -1 8 4 0 6 9 8 21 5 16 -4 17 -8 7 -14 -9 -6 -5 -9 13 -9 14
0 31 6 37 12 10 10 15 10 23 -2 14 -22 1 -82 -22 -102 -26 -22 -24 -25 11 -22
17 1 30 0 30 -2 0 -12 -39 -45 -51 -44 -28 4 -41 0 -36 -12 2 -7 -2 -26 -10
-41 -13 -25 -17 -27 -51 -21 -20 4 -49 16 -64 27 -27 20 -37 19 -75 -9 -21
-15 -23 -15 -34 10 -11 23 -38 38 -99 54 -8 2 -38 5 -67 6 -38 1 -49 -1 -43
-9 6 -7 7 -15 3 -18 -11 -12 -21 -8 -26 11 -3 9 -5 2 -6 -16 0 -18 -5 -31 -10
-28 -12 8 -4 105 9 121 6 7 7 21 3 30 -4 13 -3 16 5 11 8 -4 12 0 12 11 0 22
34 76 43 67 3 -4 14 -4 23 0 12 5 14 9 5 20 -6 7 -8 16 -4 19 11 12 23 8 23
-8 0 -24 35 -17 50 10 15 28 13 27 34 19z m894 -76 c17 -17 15 -58 -2 -58 -8
0 -24 12 -36 27 -16 20 -18 28 -8 35 18 11 32 10 46 -4z m-787 -46 c6 -46 -8
-69 -36 -58 -16 6 -22 86 -8 100 18 18 38 -1 44 -42z m57 -4 c-2 -39 -7 -53
-18 -53 -10 0 -16 12 -18 39 -4 47 3 66 23 66 13 0 15 -10 13 -52z m1487 22
c3 -5 -3 -10 -14 -10 -12 0 -21 5 -21 10 0 6 6 10 14 10 8 0 18 -4 21 -10z
m-940 -70 c-3 -5 -11 -10 -16 -10 -6 0 -7 5 -4 10 3 6 11 10 16 10 6 0 7 -4 4
-10z m-960 -92 c4 -29 5 -69 3 -88 l-3 -35 -124 -5 c-67 -3 -128 -2 -133 1 -5
4 -8 15 -6 25 2 15 16 21 61 26 67 9 131 46 162 95 11 18 23 32 27 33 4 0 10
-24 13 -52z m-375 22 c0 -11 -4 -20 -10 -20 -5 0 -10 9 -10 20 0 11 5 20 10
20 6 0 10 -9 10 -20z m8 -68 c2 -7 -6 -12 -17 -12 -21 0 -27 11 -14 24 9 9 26
2 31 -12z m372 -136 c0 -16 -18 -31 -27 -22 -8 8 5 36 17 36 5 0 10 -6 10 -14z
m-242 -79 c2 -64 0 -77 -13 -77 -8 0 -15 6 -16 13 0 6 -3 32 -5 56 -6 54 2 94
19 88 8 -2 13 -31 15 -80z m52 13 c0 -64 -7 -93 -21 -84 -10 6 -12 137 -3 147
15 15 24 -8 24 -63z m50 25 c0 -25 -4 -45 -10 -45 -11 0 -14 73 -3 83 11 12
13 8 13 -38z m1597 23 c-3 -8 -6 -5 -6 6 -1 11 2 17 5 13 3 -3 4 -12 1 -19z
m-1507 -35 c0 -12 -4 -25 -10 -28 -6 -4 -10 11 -10 37 0 31 3 39 10 28 5 -8
10 -25 10 -37z m298 18 c15 -9 9 -15 -54 -49 -69 -37 -86 -28 -36 18 42 40 65
47 90 31z m-1179 -187 c17 -17 -73 -27 -166 -18 -66 7 -82 19 -35 27 30 6 194
-2 201 -9z m2466 6 c-3 -5 -10 -10 -16 -10 -5 0 -9 5 -9 10 0 6 7 10 16 10 8
0 12 -4 9 -10z m-2256 -26 c3 -3 0 -9 -6 -15 -6 -6 -25 -8 -48 -3 -38 7 -38 7
-14 20 21 11 54 10 68 -2z m534 -59 c4 -8 3 -16 -1 -19 -4 -3 -9 4 -9 15 -2
23 3 25 10 4z"/>
<path d="M6640 5053 l-76 -4 3 -132 3 -132 51 -5 c27 -3 75 -1 105 4 47 9 54
13 54 33 0 27 -7 28 -34 8 -11 -8 -30 -15 -42 -15 -21 0 -22 4 -17 38 3 20 15
45 27 54 l21 18 -22 6 c-26 7 -31 24 -7 24 12 0 15 7 12 30 -4 28 6 40 33 40
5 0 9 -36 9 -80 0 -52 4 -80 11 -80 7 0 9 9 5 23 -3 12 -6 57 -6 100 l0 77
-27 -2 c-16 -1 -62 -4 -103 -5z m22 -73 c0 -16 1 -36 2 -42 1 -7 -10 -15 -23
-16 -22 -4 -23 -2 -16 35 8 44 12 53 26 53 5 0 10 -13 11 -30z m3 -121 c8 -46
8 -46 -20 -49 -39 -4 -45 0 -45 33 0 36 15 57 41 57 12 0 19 -12 24 -41z"/>
<path d="M6980 4995 c-7 -9 -8 -15 -2 -15 5 0 12 7 16 15 3 8 4 15 2 15 -2 0
-9 -7 -16 -15z"/>
<path d="M7000 4950 c6 -11 13 -20 16 -20 2 0 0 9 -6 20 -6 11 -13 20 -16 20
-2 0 0 -9 6 -20z"/>
<path d="M7832 4280 c-18 -29 -15 -38 13 -32 26 5 29 10 19 36 -8 21 -17 20
-32 -4z"/>
<path d="M10385 5700 c-41 -35 -277 -181 -365 -225 -19 -10 -55 -32 -80 -50
-78 -56 -109 -68 -179 -67 -76 2 -229 -30 -265 -53 -37 -24 -66 -77 -66 -119
0 -35 1 -36 38 -36 20 0 109 7 197 15 88 8 187 15 221 15 81 0 246 -31 369
-69 118 -37 292 -74 306 -66 18 12 8 55 -22 89 -24 27 -42 37 -87 46 -137 27
-388 84 -401 90 -9 5 23 27 95 65 308 164 334 186 334 279 0 65 -17 126 -35
126 -8 0 -34 -18 -60 -40z"/>
<path d="M7628 5649 c-2 -17 -10 -25 -28 -27 -54 -7 -102 -24 -93 -33 5 -5 22
-5 43 1 73 21 70 27 70 -144 0 -170 -7 -190 -47 -140 -13 16 -33 40 -43 52
-11 13 -20 36 -20 52 0 33 -11 37 -159 66 -67 13 -96 15 -98 7 -3 -7 -16 -8
-41 -2 -62 15 -128 38 -112 39 31 3 -77 31 -130 34 -30 2 -62 6 -70 9 -33 12
-106 28 -115 26 -6 -2 -19 2 -30 8 -11 6 -42 13 -68 15 -25 2 -50 7 -53 11 -4
4 -17 7 -29 7 -13 0 -39 7 -59 15 -45 19 -48 2 -5 -24 26 -16 36 -17 57 -8 21
10 27 9 36 -6 61 -101 315 -429 361 -467 10 -8 60 -67 111 -130 106 -131 253
-290 254 -275 0 6 -11 22 -23 35 -33 36 -97 128 -97 140 0 16 14 11 28 -10 7
-11 17 -20 23 -20 6 0 3 8 -7 18 -17 16 -16 17 24 20 35 3 50 -2 83 -29 43
-34 58 -34 37 0 -11 18 -11 23 0 30 10 6 5 12 -19 20 -18 6 -41 19 -52 28 -18
17 -19 17 -28 0 -8 -14 -20 -16 -64 -12 -73 7 -99 18 -124 53 -11 17 -21 33
-21 36 0 9 48 7 54 -2 3 -5 43 -12 88 -16 46 -4 119 -11 163 -15 44 -5 86 -6
94 -1 21 12 1 19 -85 30 -136 18 -142 19 -163 48 l-20 28 155 -3 c86 -2 174
-8 197 -14 23 -6 58 -12 78 -13 34 -1 109 -48 109 -69 0 -5 -35 -6 -82 -2 -51
3 -89 2 -98 -4 -12 -9 -11 -11 6 -11 37 0 83 -21 89 -40 3 -10 12 -21 21 -24
11 -4 13 0 8 19 -6 23 -4 25 33 25 21 0 43 -4 49 -9 5 -6 34 -23 64 -39 30
-16 54 -34 53 -38 -2 -5 -29 -11 -60 -14 -39 -3 -52 -7 -40 -12 25 -11 69 -10
86 1 21 14 101 -35 101 -61 0 -13 -57 -9 -99 8 -28 11 -45 13 -58 6 -28 -15
-281 -6 -387 14 -11 2 -30 1 -43 -2 -19 -5 -21 -9 -12 -20 6 -8 18 -14 26 -14
7 0 32 -19 55 -42 26 -27 43 -38 46 -30 2 7 -3 21 -12 31 -32 35 -21 44 45 37
34 -3 72 -6 85 -6 12 0 29 -7 38 -15 19 -20 66 -37 66 -25 0 5 -9 14 -20 20
-29 15 -25 31 7 26 15 -3 59 -6 97 -7 39 -1 80 -8 91 -15 11 -7 53 -22 92 -34
64 -19 74 -20 87 -7 11 10 42 15 108 16 51 1 97 6 101 11 5 4 -32 14 -82 20
-58 8 -90 17 -88 24 2 6 18 10 36 8 25 -2 31 2 31 18 0 11 7 20 15 20 8 0 15
-5 15 -11 0 -6 9 -9 20 -6 15 4 37 -10 81 -50 33 -31 62 -53 66 -50 3 3 -22
34 -55 69 -199 209 -238 251 -246 268 -5 11 -17 22 -27 25 -11 4 -19 10 -19
15 0 4 -6 10 -14 13 -10 4 -12 0 -8 -15 5 -19 2 -20 -34 -14 -21 4 -51 17 -66
29 -15 12 -42 33 -59 46 -17 14 -38 39 -45 57 -7 18 -27 42 -44 54 -16 12 -35
31 -41 42 -9 17 -8 19 8 14 10 -3 46 -7 80 -10 l62 -4 -11 24 c-9 19 -19 24
-49 24 -21 0 -41 5 -44 11 -4 5 -12 8 -18 6 -7 -2 -20 0 -29 5 -15 7 -18 23
-18 93 0 46 5 87 10 90 6 3 10 17 10 30 0 19 -9 28 -37 41 -21 8 -52 18 -70
21 -27 5 -32 2 -35 -18z m-319 -230 c23 -5 58 -21 75 -34 18 -14 38 -25 44
-25 7 0 12 -7 12 -15 0 -22 -103 -21 -126 2 -15 16 -15 17 2 24 15 5 10 8 -19
14 -27 5 -35 10 -25 16 9 6 7 9 -9 9 -13 0 -23 5 -23 10 0 12 13 12 69 -1z
m104 -118 c25 -10 77 -59 77 -73 0 -4 21 -27 48 -52 57 -55 51 -56 -95 -25
-54 12 -117 22 -141 24 -45 3 -72 15 -34 15 12 0 22 5 22 11 0 6 20 9 51 7 63
-4 80 17 22 27 -57 10 -73 15 -73 26 0 5 10 8 23 6 18 -2 21 2 19 21 -3 19 1
22 27 22 16 0 41 -4 54 -9z m-272 -204 c3 -4 28 -9 55 -10 52 -3 74 -11 74
-29 0 -6 -10 -7 -27 -2 -16 4 -50 10 -78 13 -37 4 -51 11 -53 24 -4 17 17 20
29 4z m983 -79 l27 -43 -31 35 c-27 30 -37 50 -26 50 2 0 15 -19 30 -42z"/>
<path d="M6352 5290 c-18 -29 -15 -38 4 -12 9 13 14 25 12 27 -2 2 -9 -5 -16
-15z"/>
<path d="M3040 5291 c-21 -6 -25 -14 -28 -50 -3 -40 -2 -42 12 -28 9 8 13 22
10 31 -4 10 5 20 25 31 47 24 38 32 -19 16z"/>
<path d="M6305 5230 c-10 -11 -14 -20 -9 -20 5 0 15 9 22 20 7 11 11 20 9 20
-2 0 -12 -9 -22 -20z"/>
<path d="M5202 5140 c-24 -11 -41 -24 -38 -29 3 -5 -1 -12 -10 -15 -8 -3 -12
-2 -9 4 9 15 -16 12 -50 -6 -16 -9 -68 -29 -115 -46 -80 -28 -96 -30 -280 -34
-194 -4 -350 -19 -350 -34 0 -23 177 -153 275 -202 28 -14 70 -29 94 -33 24
-4 62 -16 85 -26 23 -10 55 -18 71 -18 29 1 29 1 5 8 -14 5 -57 22 -97 40 -39
17 -79 31 -88 31 -21 0 -135 50 -135 59 0 4 -13 15 -30 24 -30 18 -43 51 -16
41 8 -3 25 4 37 15 13 12 27 21 33 21 5 0 7 3 3 6 -3 4 0 13 8 20 16 16 65 19
65 3 0 -6 7 -3 16 6 12 11 28 15 51 12 39 -6 67 -26 46 -34 -7 -3 -13 -9 -13
-15 0 -6 6 -5 15 2 21 17 32 4 18 -20 -16 -24 2 -40 43 -38 16 0 58 -2 94 -5
39 -3 70 -1 77 5 9 7 17 7 28 -2 9 -7 29 -10 48 -7 30 5 35 2 43 -21 l10 -27
18 34 18 34 -29 23 c-35 29 -40 29 -53 4 -12 -23 -52 -27 -69 -6 -6 7 -21 11
-34 9 -12 -2 -29 1 -37 6 -12 8 -12 13 0 35 7 14 19 26 27 26 7 0 13 7 13 16
0 14 8 15 54 10 35 -5 56 -3 61 3 3 6 -1 14 -10 17 -23 9 3 26 28 18 9 -3 17
-1 17 4 0 5 11 15 25 22 14 7 25 20 25 28 0 10 7 12 24 8 14 -3 28 -2 31 4 3
5 1 10 -6 10 -18 0 1 17 26 23 l20 5 -20 1 c-11 0 -39 -8 -63 -19z m-624 -167
c-10 -2 -28 -2 -40 0 -13 2 -5 4 17 4 22 1 32 -1 23 -4z m-18 -23 c0 -5 -9
-10 -20 -10 -11 0 -20 5 -20 10 0 6 9 10 20 10 11 0 20 -4 20 -10z m348 -42
c-2 -6 -10 -14 -16 -16 -7 -2 -10 2 -6 12 7 18 28 22 22 4z"/>
<path d="M3189 4990 c-34 -32 -67 -56 -72 -53 -6 4 -8 -1 -4 -11 4 -11 3 -15
-4 -11 -5 4 -32 2 -58 -5 -46 -11 -71 -36 -71 -70 0 -13 138 -6 152 8 13 13
78 4 98 -14 11 -9 27 -10 63 -4 32 7 56 6 75 -2 15 -7 32 -13 37 -14 6 -1 12
-3 15 -4 9 -3 75 -10 102 -10 18 -1 29 -8 33 -21 10 -31 52 -52 98 -51 l42 2
-33 -20 c-27 -16 -33 -26 -30 -48 2 -19 -4 -33 -20 -45 -15 -13 -22 -28 -20
-45 3 -25 1 -27 -34 -24 -20 1 -39 -2 -43 -8 -11 -18 -23 -11 -30 20 -4 18
-19 37 -38 49 -18 11 -40 33 -50 50 -10 17 -22 31 -27 31 -11 0 -40 -53 -40
-73 0 -8 -6 -20 -14 -26 -12 -10 -16 -5 -26 24 -15 47 -42 46 -61 -2 -8 -20
-13 -43 -11 -50 6 -29 -19 -10 -44 32 -26 45 -44 57 -44 30 0 -8 -9 -24 -20
-35 -11 -11 -20 -29 -20 -40 0 -22 -34 -45 -52 -34 -8 5 -9 2 -5 -10 4 -10 7
-19 7 -21 0 -2 9 -1 20 2 24 6 25 0 4 -21 -17 -17 -11 -36 12 -36 8 0 14 -5
14 -11 0 -8 -12 -10 -33 -6 -40 6 -70 -8 -48 -22 7 -5 22 -6 33 -3 13 3 24 -1
29 -10 6 -12 17 -14 41 -8 21 4 43 2 59 -6 14 -7 52 -13 85 -14 67 0 95 -3
109 -12 6 -3 29 -5 53 -3 29 2 50 -3 66 -16 13 -11 29 -19 35 -19 6 0 26 -9
46 -20 22 -12 45 -18 59 -14 14 3 27 0 35 -10 7 -8 18 -13 25 -10 7 3 30 -5
50 -16 35 -21 47 -40 25 -40 -19 0 -5 -33 16 -36 11 -1 37 -8 59 -15 36 -12
40 -11 56 9 15 18 28 22 62 20 24 -1 70 7 103 16 91 28 161 34 251 25 133 -15
194 -25 299 -54 55 -16 136 -37 180 -47 106 -26 189 -48 247 -65 53 -17 89
-12 45 6 -33 13 -31 36 4 37 61 3 65 4 48 14 -19 11 -129 1 -126 -13 4 -19
-22 -18 -42 2 -12 12 -30 21 -40 21 -10 0 -33 13 -50 29 -23 22 -31 38 -31 64
0 19 -7 40 -15 47 -12 10 -18 6 -35 -22 -11 -18 -23 -32 -27 -30 -5 1 -12 26
-18 55 -12 63 -39 77 -58 28 -24 -64 -45 -40 -62 72 -8 53 -41 52 -62 -3 -20
-49 -48 -54 -57 -9 -8 39 -39 37 -44 -4 -4 -34 -34 -36 -51 -3 -7 13 -28 30
-46 39 -23 11 -34 24 -39 48 -7 36 2 55 10 22 5 -19 51 -49 61 -40 2 3 -6 21
-17 40 -27 45 -20 56 29 50 27 -4 46 0 67 13 52 34 91 43 115 26 11 -8 40 -15
63 -16 37 -2 99 -25 68 -26 -7 0 -11 -4 -8 -9 9 -13 89 -51 109 -51 10 0 23
-11 29 -25 12 -26 17 -29 42 -19 17 6 21 40 8 61 -11 17 -78 44 -95 38 -7 -3
-29 12 -49 35 -22 24 -46 40 -60 40 -13 1 -56 3 -97 6 -41 3 -86 1 -100 -4
-86 -31 -111 -35 -136 -22 -14 8 -21 16 -16 20 20 12 -22 45 -119 92 -14 7
-40 25 -58 40 -18 15 -42 28 -53 28 -15 0 -25 11 -36 39 -13 34 -21 41 -54 46
-21 4 -46 2 -58 -4 -27 -15 -29 -15 -46 19 -9 17 -22 30 -29 30 -7 0 -19 7
-26 16 -8 8 -25 14 -39 12 -20 -2 -27 2 -29 20 -3 18 -8 21 -28 16 -20 -5 -26
-2 -31 14 -6 26 -39 34 -99 23 -26 -5 -54 -7 -62 -4 -8 3 -18 0 -22 -7 -7 -11
-14 -11 -34 -2 -14 6 -33 9 -41 6 -20 -8 -47 14 -43 35 4 27 -11 41 -45 41
-18 0 -41 7 -51 15 -11 8 -37 15 -57 15 -33 0 -47 -8 -100 -60z m71 -40 c0 -5
-7 -10 -15 -10 -8 0 -15 5 -15 10 0 6 7 10 15 10 8 0 15 -4 15 -10z m-230 -70
c0 -5 -5 -10 -11 -10 -5 0 -7 5 -4 10 3 6 8 10 11 10 2 0 4 -4 4 -10z m786
-155 c4 -10 15 -12 35 -8 18 3 29 1 29 -6 0 -6 9 -20 20 -31 24 -24 70 -27 70
-5 0 13 4 14 21 5 11 -6 35 -10 52 -8 23 2 32 -1 32 -12 0 -9 8 -14 19 -12 10
2 15 -1 12 -6 -3 -5 9 -13 27 -16 20 -4 44 -20 66 -46 18 -22 37 -37 42 -35
13 8 56 -16 56 -31 0 -10 -13 -14 -40 -14 -23 0 -48 -7 -58 -16 -23 -21 -39
-10 -39 25 0 35 -27 90 -47 98 -9 4 -24 1 -34 -5 -15 -10 -20 -7 -31 15 -17
35 -32 39 -56 15 -13 -13 -25 -17 -33 -11 -8 5 -26 0 -45 -12 -22 -13 -35 -16
-39 -9 -4 6 -14 10 -23 9 -35 -3 -42 2 -57 37 -12 29 -19 35 -35 31 -15 -4
-20 0 -20 14 0 10 7 19 15 19 9 0 18 7 21 15 8 19 33 19 40 0z m18 -365 c39
-6 77 -17 86 -25 8 -8 40 -21 70 -29 80 -21 88 -25 104 -57 18 -35 5 -37 -37
-5 -57 43 -107 60 -264 93 -133 27 -103 43 41 23z"/>
<path d="M5190 5031 c31 -24 58 -32 66 -19 10 15 -7 26 -51 33 l-40 6 25 -20z"/>
<path d="M6139 5018 c-20 -29 -106 -130 -167 -196 -12 -14 -20 -27 -17 -30 10
-10 54 29 87 80 20 29 50 69 68 88 42 47 64 79 57 86 -2 3 -15 -10 -28 -28z"/>
<path d="M7532 4922 c-9 -6 -6 -14 13 -32 21 -19 25 -21 25 -7 0 9 8 17 18 17
13 1 11 4 -8 15 -29 17 -31 17 -48 7z"/>
<path d="M7644 4879 c27 -14 46 -18 65 -14 l26 8 -25 7 c-14 4 -43 10 -65 13
l-40 7 39 -21z"/>
<path d="M3458 4733 c7 -3 16 -2 19 1 4 3 -2 6 -13 5 -11 0 -14 -3 -6 -6z"/>
<path d="M5887 4720 c-9 -14 -17 -34 -17 -45 0 -16 4 -14 21 12 25 39 21 68
-4 33z"/>
<path d="M5570 4710 c0 -5 5 -10 10 -10 6 0 10 5 10 10 0 6 -4 10 -10 10 -5 0
-10 -4 -10 -10z"/>
<path d="M8500 4714 c0 -6 13 -22 28 -37 27 -26 42 -27 42 -4 0 6 -3 7 -7 4
-4 -4 -19 5 -35 20 -15 15 -28 22 -28 17z"/>
<path d="M5496 4679 c-9 -21 10 -69 28 -69 14 0 46 36 46 52 0 13 -38 9 -46
-4 -6 -9 -10 -5 -15 12 -5 20 -8 22 -13 9z"/>
<path d="M5170 4605 c0 -8 94 -53 115 -55 58 -7 52 4 -19 30 -80 30 -96 34
-96 25z"/>
<path d="M5360 4566 c0 -2 7 -6 15 -10 8 -3 15 -1 15 4 0 6 -7 10 -15 10 -8 0
-15 -2 -15 -4z"/>
<path d="M5474 4526 c11 -9 24 -16 30 -16 12 0 7 5 -24 19 -24 11 -24 11 -6
-3z"/>
<path d="M5874 4516 c-10 -8 -16 -17 -13 -20 3 -4 17 2 30 13 27 23 13 28 -17
7z"/>
<path d="M5550 4476 c0 -14 52 -26 68 -16 15 8 15 9 -3 10 -11 0 -30 3 -42 6
-13 4 -23 3 -23 0z"/>
<path d="M5794 4455 c-10 -8 -14 -14 -9 -15 15 0 40 18 34 24 -3 3 -14 -1 -25
-9z"/>
<path d="M6910 4449 l-35 -18 30 0 c17 1 41 4 55 8 24 7 24 8 5 18 -16 9 -28
7 -55 -8z"/>
<path d="M4982 4419 c-52 -47 -40 -66 45 -72 41 -3 44 16 3 24 -45 10 -48 18
-18 44 18 15 23 25 15 28 -7 3 -27 -8 -45 -24z"/>
<path d="M7008 4443 c6 -2 18 -2 25 0 6 3 1 5 -13 5 -14 0 -19 -2 -12 -5z"/>
<path d="M3214 4171 c4 -5 0 -12 -6 -15 -7 -3 -4 -5 6 -3 24 3 34 27 11 27 -9
0 -14 -4 -11 -9z"/>
<path d="M3119 4144 c-33 -35 -7 -51 27 -17 28 28 28 29 10 36 -8 3 -24 -6
-37 -19z"/>
<path d="M3980 4141 c0 -5 9 -7 20 -4 11 3 20 7 20 9 0 2 -9 4 -20 4 -11 0
-20 -4 -20 -9z"/>
<path d="M9204 4125 c-9 -22 0 -50 16 -50 21 0 26 51 5 59 -9 3 -18 0 -21 -9z"/>
<path d="M2540 4116 c0 -2 7 -6 15 -10 8 -3 15 -1 15 4 0 6 -7 10 -15 10 -8 0
-15 -2 -15 -4z"/>
<path d="M2289 4088 c-7 -13 -15 -25 -18 -28 -13 -11 -31 -51 -31 -68 0 -10
12 -29 26 -43 l26 -24 23 29 c19 23 21 34 14 64 -5 23 -4 41 3 49 7 9 7 17 -2
28 -17 21 -27 19 -41 -7z"/>
<path d="M5940 4090 c14 -4 32 -8 40 -9 13 -1 13 0 0 9 -8 5 -26 9 -40 9 l-25
-1 25 -8z"/>
<path d="M2420 4079 c0 -6 -7 -8 -17 -4 -14 5 -15 3 -7 -5 7 -7 22 -10 35 -8
29 4 38 28 10 28 -12 0 -21 -5 -21 -11z"/>
<path d="M5526 4038 c-15 -29 -15 -33 -1 -40 8 -5 15 -20 15 -33 0 -18 4 -23
15 -19 8 4 15 1 15 -6 0 -6 4 -9 9 -6 15 9 1 45 -15 39 -18 -7 -18 7 2 47 14
27 14 34 3 41 -22 14 -26 11 -43 -23z"/>
<path d="M2563 4013 c16 -16 18 -16 34 0 16 16 15 17 -17 17 -32 0 -33 -1 -17
-17z"/>
<path d="M9026 4012 c-3 -6 -1 -14 5 -17 15 -10 25 3 12 16 -7 7 -13 7 -17 1z"/>
<path d="M2635 3946 c-13 -17 -21 -34 -16 -39 10 -10 111 3 111 14 0 5 -4 9
-10 9 -5 0 -10 8 -10 19 0 12 -9 20 -25 24 -20 3 -31 -3 -50 -27z"/>
<path d="M5300 3950 c0 -5 14 -10 30 -10 17 0 30 5 30 10 0 6 -13 10 -30 10
-16 0 -30 -4 -30 -10z"/>
<path d="M5078 3923 c6 -2 18 -2 25 0 6 3 1 5 -13 5 -14 0 -19 -2 -12 -5z"/>
<path d="M2778 3913 c7 -3 16 -2 19 1 4 3 -2 6 -13 5 -11 0 -14 -3 -6 -6z"/>
<path d="M4373 3893 c15 -3 27 -11 27 -19 0 -8 4 -13 10 -9 20 12 -3 35 -34
34 -30 -2 -30 -2 -3 -6z"/>
<path d="M4440 3860 c0 -6 7 -10 15 -10 8 0 15 2 15 4 0 2 -7 6 -15 10 -8 3
-15 1 -15 -4z"/>
<path d="M6112 3820 c0 -14 2 -19 5 -12 2 6 2 18 0 25 -3 6 -5 1 -5 -13z"/>
<path d="M2641 3814 c12 -15 54 -20 45 -5 -3 5 -17 11 -31 13 -20 4 -23 3 -14
-8z"/>
<path d="M4718 3823 c7 -3 16 -2 19 1 4 3 -2 6 -13 5 -11 0 -14 -3 -6 -6z"/>
<path d="M7965 3774 c-33 -20 -69 -44 -80 -54 -11 -10 -33 -22 -50 -26 -16 -4
-34 -13 -40 -21 -8 -10 -22 -11 -72 -2 -58 10 -64 9 -94 -12 -19 -13 -27 -25
-20 -27 28 -9 -13 -32 -57 -32 -38 0 -50 5 -68 28 -17 20 -25 24 -34 16 -17
-17 6 -58 27 -50 35 14 59 -70 29 -100 -27 -26 -69 -17 -99 21 -15 19 -37 35
-47 35 -15 0 -20 7 -20 25 0 20 5 25 25 25 14 0 25 4 25 9 0 17 -25 19 -43 3
-15 -13 -22 -14 -38 -4 -10 7 -19 8 -19 3 0 -6 7 -14 15 -19 14 -7 13 -11 -5
-27 -11 -10 -20 -23 -20 -29 0 -7 -15 -20 -32 -31 l-33 -19 43 -18 c25 -11 48
-30 57 -48 10 -20 23 -30 38 -30 15 0 23 -6 23 -19 0 -10 -7 -18 -15 -17 -18
1 -22 -54 -4 -61 7 -3 13 -9 13 -13 0 -10 -49 -28 -75 -28 -51 1 -223 -26
-252 -38 -17 -8 -40 -25 -50 -37 -17 -21 -24 -22 -91 -17 -40 3 -75 3 -78 1
-2 -2 -4 -19 -4 -37 0 -26 -13 -48 -60 -103 -58 -68 -60 -69 -118 -76 -35 -4
-76 -2 -100 5 -25 6 -68 8 -107 4 -44 -5 -69 -3 -79 5 -14 12 -116 9 -158 -5
-9 -3 -35 4 -58 16 -39 20 -44 20 -95 6 -70 -21 -112 -20 -160 3 -22 11 -59
25 -83 32 -33 10 -51 23 -73 56 -34 48 -44 52 -149 55 -114 3 -224 -9 -259
-26 -17 -9 -63 -21 -102 -26 -40 -4 -75 -12 -78 -17 -34 -51 -73 -90 -115
-117 -100 -65 -193 -106 -241 -106 -19 0 -35 -4 -35 -10 0 -5 4 -10 9 -10 6 0
9 -12 8 -27 -2 -24 2 -28 26 -29 30 -1 64 -24 36 -24 -8 -1 0 -13 19 -29 21
-18 42 -27 55 -25 12 2 16 2 10 -2 -21 -10 -16 -36 6 -29 11 3 21 0 24 -9 4
-9 29 -17 73 -21 53 -6 71 -13 88 -32 17 -20 29 -24 66 -23 66 2 70 2 70 -15
0 -24 23 -17 54 16 17 17 35 28 43 25 8 -4 32 -6 53 -6 30 0 40 -5 45 -20 4
-12 1 -28 -6 -37 -11 -13 -10 -18 9 -33 l22 -18 -38 -17 c-41 -20 -54 -34 -47
-52 3 -8 -4 -13 -16 -13 -27 0 -19 -24 9 -28 11 -2 26 -10 32 -18 24 -28 158
-7 201 32 37 34 280 27 364 -11 17 -7 61 -24 99 -36 73 -24 98 -20 104 17 9
57 13 64 37 64 14 0 25 6 25 13 0 7 13 12 33 11 47 -1 47 -2 32 -31 -12 -23
-12 -28 3 -39 15 -12 14 -13 -10 -14 -24 0 -52 -19 -31 -21 89 -9 113 -5 129
18 8 14 13 31 10 40 -3 8 -2 22 3 32 13 24 1 39 -34 43 -24 2 -30 8 -30 28 0
18 4 24 15 20 8 -3 46 -5 84 -5 55 0 71 -4 80 -18 8 -14 8 -20 -4 -27 -11 -7
-12 -12 -3 -21 6 -6 17 -8 25 -3 7 5 21 7 31 6 9 -2 17 2 17 7 0 6 -9 11 -20
11 -22 0 -25 12 -10 41 8 14 22 19 58 19 47 1 82 17 82 39 0 7 -4 10 -9 7 -13
-8 -19 14 -14 52 4 23 11 32 24 32 10 0 22 7 27 16 8 15 14 15 48 3 21 -7 43
-12 48 -11 5 2 16 0 25 -4 9 -5 27 -8 41 -9 14 -1 35 -5 48 -9 18 -6 22 -4 22
13 0 12 -7 21 -15 21 -8 0 -15 8 -15 18 1 21 23 52 39 52 6 0 10 13 9 32 -3
28 1 34 21 36 32 5 66 -5 85 -24 20 -20 20 -34 1 -34 -9 0 -15 -9 -15 -25 0
-25 14 -33 25 -15 10 16 35 12 29 -5 -4 -9 3 -18 18 -24 31 -12 53 -37 38 -46
-16 -10 -12 -35 8 -35 9 0 28 9 42 20 24 20 24 21 6 35 -10 8 -22 12 -26 10
-9 -6 -22 37 -14 45 3 3 11 -3 18 -12 7 -9 25 -18 40 -20 24 -2 32 3 45 29 9
18 19 33 23 33 10 0 -2 -31 -20 -53 -23 -26 -6 -33 33 -14 20 9 38 17 40 17
10 0 4 -37 -7 -49 -7 -7 -8 -11 -3 -10 6 2 26 -2 45 -9 l34 -12 -33 -30 c-18
-17 -38 -30 -45 -30 -8 0 -19 -7 -27 -16 -10 -13 -10 -17 0 -24 10 -5 10 -9 1
-15 -6 -4 -20 1 -31 11 -23 21 -24 13 -3 -27 10 -19 21 -29 30 -25 8 3 14 1
14 -5 0 -5 -8 -13 -17 -16 -10 -4 -22 -12 -26 -20 -4 -7 -14 -13 -21 -13 -17
0 -58 -45 -49 -53 3 -4 1 -7 -6 -7 -8 0 -11 -7 -7 -15 9 -25 -3 -41 -59 -80
-43 -29 -63 -37 -100 -37 -25 0 -43 -4 -39 -9 16 -26 145 3 157 36 4 8 12 15
20 15 15 0 59 45 76 77 7 15 19 22 33 20 15 -1 26 6 35 25 13 26 62 68 79 68
4 0 20 11 34 25 24 23 30 25 53 14 21 -10 31 -9 49 3 13 9 39 19 58 23 19 4
54 22 77 40 78 59 160 53 186 -14 13 -36 70 -75 110 -74 47 0 139 29 153 47 6
9 15 16 20 16 5 0 31 18 58 40 27 22 60 43 75 47 38 9 92 41 126 74 17 16 39
29 48 29 9 0 17 5 17 11 0 7 12 9 35 5 24 -5 45 -1 67 10 24 13 60 17 130 18
65 1 98 5 98 12 0 25 -168 32 -222 10 -19 -8 -67 -16 -107 -17 -63 -2 -74 -5
-87 -25 -12 -18 -23 -22 -52 -19 -48 4 -46 3 -33 19 8 10 9 16 1 21 -6 4 -1
18 15 39 39 51 28 86 -26 86 -34 0 -53 -23 -45 -54 4 -15 -2 -43 -14 -70 -10
-25 -15 -46 -10 -46 6 0 10 -7 10 -16 0 -12 -6 -15 -25 -10 -29 7 -54 -4 -90
-39 -19 -20 -31 -24 -52 -19 -37 9 -90 41 -97 59 -3 8 -10 15 -16 15 -20 0
-42 30 -37 50 3 11 1 22 -4 25 -10 7 -1 64 13 82 5 7 7 17 3 23 -4 6 -2 17 5
24 8 11 6 23 -10 50 -20 36 -19 44 8 86 2 2 7 -2 12 -10 7 -11 30 -15 84 -16
41 -1 79 -5 86 -9 6 -4 26 -9 43 -12 17 -3 44 -11 58 -19 24 -12 28 -12 33 2
5 13 9 14 21 4 11 -9 18 -9 30 3 8 8 26 14 40 13 25 -3 35 17 15 29 -6 4 -8
10 -5 15 12 20 -15 19 -34 -1 -21 -22 -41 -18 -41 8 0 10 6 14 20 10 11 -3 23
-1 26 4 3 5 0 9 -5 9 -19 0 -12 18 10 25 17 6 20 13 17 37 -4 24 1 34 28 55
18 13 36 33 39 42 7 22 -4 53 -16 45 -5 -3 -9 0 -9 5 0 17 -17 13 -24 -6 -4
-9 -2 -21 4 -27 14 -14 12 -26 -5 -26 -8 0 -15 5 -15 10 0 16 -18 12 -39 -9
-32 -32 -76 -52 -88 -40 -12 12 12 69 29 69 6 0 8 11 6 24 -3 15 0 27 8 30 19
7 17 34 -3 54 -15 16 -14 17 18 23 39 6 79 26 79 39 0 4 -14 2 -31 -7 -22 -11
-37 -12 -57 -5 -15 5 -53 10 -85 11 -32 1 -66 7 -77 13 -28 18 -33 50 -10 69
19 16 19 18 2 40 -14 18 -18 38 -15 79 2 34 0 50 -6 41 -5 -7 -14 -10 -21 -6
-8 5 -7 12 5 25 9 10 14 27 11 37 -9 30 8 47 34 33 12 -6 24 -9 27 -6 15 15
-58 66 -94 66 -10 0 -45 -16 -78 -36z m-145 -174 c0 -11 -4 -20 -10 -20 -5 0
-10 5 -10 11 0 5 -4 7 -10 4 -5 -3 -10 1 -10 9 0 9 9 16 20 16 13 0 20 -7 20
-20z m-150 -140 c0 -5 -13 -10 -30 -10 -16 0 -30 5 -30 10 0 6 14 10 30 10 17
0 30 -4 30 -10z m117 4 c-3 -3 -12 -4 -19 -1 -8 3 -5 6 6 6 11 1 17 -2 13 -5z
m-47 -14 c-20 -13 -33 -13 -25 0 3 6 14 10 23 10 15 0 15 -2 2 -10z m287 -146
c-3 -3 -12 -4 -19 -1 -8 3 -5 6 6 6 11 1 17 -2 13 -5z m-47 -14 c0 -5 -5 -10
-11 -10 -5 0 -7 5 -4 10 3 6 8 10 11 10 2 0 4 -4 4 -10z m-85 -440 c3 -5 -1
-10 -9 -10 -9 0 -16 5 -16 10 0 6 4 10 9 10 6 0 13 -4 16 -10z m395 -76 c0 -2
-7 -4 -15 -4 -8 0 -15 4 -15 10 0 5 7 7 15 4 8 -4 15 -8 15 -10z m-6 -66 c6
-5 2 -8 -11 -8 -27 0 -41 19 -22 31 9 5 15 4 18 -4 2 -7 9 -15 15 -19z m66
-12 c0 -11 -19 -15 -25 -6 -3 5 1 10 9 10 9 0 16 -2 16 -4z m-2090 -156 c0 -5
-7 -10 -15 -10 -8 0 -15 5 -15 10 0 6 7 10 15 10 8 0 15 -4 15 -10z"/>
<path d="M7786 3775 c-8 -21 20 -31 40 -15 12 11 12 15 2 21 -20 13 -35 11
-42 -6z"/>
<path d="M4433 3760 c-48 -23 -70 -46 -32 -35 26 8 89 44 89 51 0 8 -15 3 -57
-16z"/>
<path d="M1910 3721 c0 -15 6 -21 21 -21 25 0 22 33 -4 38 -12 2 -17 -3 -17
-17z"/>
<path d="M4485 3716 c11 -8 30 -12 41 -10 12 3 35 -1 52 -10 16 -8 32 -12 36
-9 11 11 36 12 36 1 0 -5 9 -6 21 -3 13 4 24 2 29 -4 4 -8 54 -14 135 -17 90
-4 125 -2 121 5 -4 6 -22 11 -41 11 -19 0 -72 9 -117 19 -46 10 -139 22 -208
25 -112 6 -123 5 -105 -8z m282 -32 c-3 -3 -12 -4 -19 -1 -8 3 -5 6 6 6 11 1
17 -2 13 -5z"/>
<path d="M9246 3723 c-3 -3 -1 -12 5 -20 9 -9 8 -13 0 -13 -6 0 -11 -7 -11
-15 0 -8 5 -15 11 -15 6 0 17 7 25 15 9 8 11 15 5 15 -6 0 -11 6 -11 14 0 17
-14 28 -24 19z"/>
<path d="M7480 3700 c0 -15 5 -20 18 -18 9 2 17 10 17 18 0 8 -8 16 -17 18
-13 2 -18 -3 -18 -18z"/>
<path d="M4972 3668 c6 -16 36 -34 44 -26 3 4 4 14 1 23 -7 17 -51 21 -45 3z"/>
<path d="M7510 3670 c0 -5 7 -10 16 -10 8 0 12 5 9 10 -3 6 -10 10 -16 10 -5
0 -9 -4 -9 -10z"/>
<path d="M2475 3660 c-11 -17 5 -32 21 -19 7 6 11 15 8 20 -7 12 -21 11 -29
-1z"/>
<path d="M7555 3660 c-3 -5 1 -10 9 -10 9 0 16 5 16 10 0 6 -4 10 -9 10 -6 0
-13 -4 -16 -10z"/>
<path d="M2041 3626 c-14 -17 -7 -36 14 -36 22 0 29 20 13 36 -13 13 -16 13
-27 0z"/>
<path d="M9503 3595 c-44 -31 -19 -105 36 -105 40 0 61 18 61 54 0 53 -55 81
-97 51z"/>
<path d="M2647 3586 c-3 -8 1 -22 8 -33 13 -17 15 -17 31 -1 9 9 14 24 11 32
-8 20 -43 21 -50 2z"/>
<path d="M8835 3570 c-3 -5 -1 -10 4 -10 6 0 11 5 11 10 0 6 -2 10 -4 10 -3 0
-8 -4 -11 -10z"/>
<path d="M2789 3541 c-18 -14 -28 -17 -42 -9 -13 7 -23 6 -29 0 -15 -15 -2
-42 19 -42 10 0 26 -14 35 -30 33 -58 108 -29 108 42 0 53 -48 74 -91 39z"/>
<path d="M2550 3515 c-19 -23 -4 -65 23 -65 45 0 65 50 28 70 -26 14 -36 13
-51 -5z"/>
<path d="M5473 3513 c-13 -2 -23 -9 -23 -14 0 -10 44 -2 70 12 12 7 11 8 -5 7
-11 0 -30 -3 -42 -5z"/>
<path d="M8630 3505 c0 -8 5 -15 10 -15 6 0 10 7 10 15 0 8 -4 15 -10 15 -5 0
-10 -7 -10 -15z"/>
<path d="M2187 3483 c-13 -13 -7 -42 12 -52 14 -8 23 -6 36 9 10 11 15 26 12
35 -6 15 -48 21 -60 8z"/>
<path d="M8820 3470 c0 -5 7 -10 15 -10 8 0 15 5 15 10 0 6 -7 10 -15 10 -8 0
-15 -4 -15 -10z"/>
<path d="M9056 3467 c-26 -19 -18 -68 14 -84 19 -9 24 -19 22 -38 -4 -32 13
-55 42 -55 45 0 61 47 26 77 -13 12 -16 20 -9 29 15 19 -10 62 -44 74 -36 12
-30 13 -51 -3z"/>
<path d="M6009 3404 c-10 -12 -25 -15 -61 -12 -42 4 -52 1 -80 -23 -21 -19
-26 -29 -16 -29 9 0 21 7 28 15 7 9 29 15 55 15 46 0 105 17 105 30 0 17 -18
19 -31 4z"/>
<path d="M2665 3400 c-8 -14 3 -30 21 -30 8 0 14 9 14 20 0 21 -24 28 -35 10z"/>
<path d="M3517 3385 c-4 -8 -3 -16 1 -19 4 -3 9 4 9 15 2 23 -3 25 -10 4z"/>
<path d="M4160 3390 c0 -5 5 -10 11 -10 5 0 7 5 4 10 -3 6 -8 10 -11 10 -2 0
-4 -4 -4 -10z"/>
<path d="M7258 3382 c-3 -9 -26 -28 -53 -42 -26 -13 -42 -26 -36 -28 6 -2 25
4 42 12 18 9 38 16 46 16 8 0 11 4 8 10 -3 5 5 12 19 16 37 9 42 34 7 34 -19
0 -30 -6 -33 -18z"/>
<path d="M8730 3365 c0 -8 7 -15 16 -15 14 0 14 3 4 15 -7 8 -14 15 -16 15 -2
0 -4 -7 -4 -15z"/>
<path d="M8370 3356 c0 -18 30 -30 43 -17 5 5 6 14 3 20 -10 16 -46 13 -46 -3z"/>
<path d="M2532 3334 c-40 -28 -17 -88 30 -76 43 11 59 49 32 76 -19 20 -34 20
-62 0z"/>
<path d="M8770 3341 c0 -5 5 -13 10 -16 6 -3 10 -2 10 4 0 5 -4 13 -10 16 -5
3 -10 2 -10 -4z"/>
<path d="M1918 3314 c-11 -23 -10 -28 7 -40 24 -18 44 -15 59 8 8 13 6 22 -8
37 -26 28 -44 26 -58 -5z"/>
<path d="M9000 3330 c0 -5 7 -10 16 -10 8 0 12 5 9 10 -3 6 -10 10 -16 10 -5
0 -9 -4 -9 -10z"/>
<path d="M6768 3323 c-16 -2 -28 -10 -28 -18 0 -15 -22 -25 -52 -25 -11 0 -60
-9 -108 -20 -71 -17 -90 -26 -100 -45 -9 -16 -25 -27 -49 -31 -20 -4 -42 -11
-48 -16 -7 -6 -25 -7 -40 -4 -26 6 -27 5 -9 -8 16 -13 11 -15 -55 -12 -41 1
-82 -2 -91 -8 -11 -7 -25 -6 -43 2 -37 17 -40 16 -85 -29 -38 -39 -51 -57 -31
-44 5 3 24 -3 43 -13 44 -24 87 -23 102 3 6 11 12 22 13 24 2 2 9 -2 18 -9 12
-10 16 -8 26 14 13 29 19 30 67 16 36 -10 120 1 131 17 10 16 41 23 68 17 25
-7 25 -8 8 -20 -11 -8 -17 -14 -14 -15 2 0 15 -2 29 -5 14 -2 36 -6 50 -8 14
-2 37 -7 52 -11 24 -6 30 -3 45 22 9 16 30 39 47 51 17 12 42 30 56 39 13 10
21 12 16 6 -10 -18 4 -16 18 1 6 8 38 17 75 20 36 3 67 9 70 14 3 5 15 11 26
15 11 3 56 20 100 37 83 32 77 33 -59 11 -65 -11 -72 -10 -123 14 -54 24 -69
26 -125 18z m6 -59 c22 -9 20 -19 -7 -31 -28 -13 -52 -1 -44 21 7 17 24 20 51
10z"/>
<path d="M3070 3310 c-9 -6 -10 -10 -3 -10 6 0 15 5 18 10 8 12 4 12 -15 0z"/>
<path d="M3097 3306 c-3 -8 0 -17 7 -19 10 -4 12 1 9 14 -6 23 -9 24 -16 5z"/>
<path d="M5690 3313 c-19 -3 -39 -9 -45 -15 -13 -14 85 -2 99 12 7 7 5 9 -4 8
-8 0 -31 -3 -50 -5z"/>
<path d="M8392 3309 c2 -7 10 -15 17 -17 8 -3 12 1 9 9 -2 7 -10 15 -17 17 -8
3 -12 -1 -9 -9z"/>
<path d="M5510 3279 c-52 -16 -115 -36 -140 -44 -52 -17 -108 -19 -144 -5 -17
6 -26 6 -26 0 0 -6 7 -10 15 -10 31 0 13 -22 -37 -46 l-53 -24 70 5 c92 8 155
24 181 47 22 19 117 58 144 58 32 0 88 21 94 35 7 19 10 19 -104 -16z"/>
<path d="M8510 3260 c0 -5 5 -10 10 -10 6 0 10 5 10 10 0 6 -4 10 -10 10 -5 0
-10 -4 -10 -10z"/>
<path d="M2336 3208 c-15 -24 -19 -46 -17 -85 1 -19 7 -23 36 -23 46 0 75 29
75 75 0 24 -6 37 -19 45 -31 16 -59 12 -75 -12z"/>
<path d="M5061 3203 c-1 -17 5 -23 22 -23 12 0 29 5 37 10 11 7 7 10 -17 10
-17 0 -34 6 -36 13 -3 6 -6 2 -6 -10z"/>
<path d="M5658 3163 c6 -2 18 -2 25 0 6 3 1 5 -13 5 -14 0 -19 -2 -12 -5z"/>
<path d="M4820 3135 c-7 -9 -10 -18 -7 -22 8 -7 37 15 37 28 0 14 -16 11 -30
-6z"/>
<path d="M2094 3129 c-9 -15 11 -33 30 -26 9 4 13 13 10 22 -7 17 -30 20 -40
4z"/>
<path d="M4735 3121 c-8 -14 10 -22 30 -15 13 5 14 8 3 15 -17 11 -26 11 -33
0z"/>
<path d="M3453 3103 c-7 -18 21 -48 36 -39 6 4 11 15 11 25 0 24 -39 35 -47
14z"/>
<path d="M4560 3110 c-9 -6 -10 -10 -3 -10 6 0 15 5 18 10 8 12 4 12 -15 0z"/>
<path d="M4630 3105 c-7 -8 -18 -15 -25 -15 -20 0 -130 -53 -118 -57 6 -2 27
5 47 16 20 12 50 22 67 23 17 1 33 6 35 10 3 4 16 8 29 8 18 0 23 4 19 15 -4
8 -14 15 -24 15 -10 0 -23 -7 -30 -15z"/>
<path d="M8410 3106 c-18 -22 -5 -48 22 -44 17 2 23 10 23 28 0 29 -26 38 -45
16z"/>
<path d="M3115 3100 c-3 -5 -21 -10 -38 -11 -28 0 -24 -3 27 -20 32 -11 60
-18 63 -15 6 6 -27 56 -38 56 -4 0 -11 -4 -14 -10z"/>
<path d="M4902 3096 c-35 -13 -64 -36 -45 -36 13 0 83 39 83 46 0 2 -1 3 -2 3
-2 -1 -18 -7 -36 -13z"/>
<path d="M1906 3083 c-12 -12 -6 -33 9 -33 8 0 15 6 15 14 0 17 -14 28 -24 19z"/>
<path d="M2407 3062 c-9 -10 -19 -32 -23 -49 -13 -65 92 -93 123 -33 14 26 9
65 -9 87 -16 19 -72 16 -91 -5z"/>
<path d="M8994 3069 c-8 -14 11 -33 25 -25 11 7 4 36 -9 36 -5 0 -12 -5 -16
-11z"/>
<path d="M6280 3060 c0 -5 5 -10 10 -10 6 0 10 5 10 10 0 6 -4 10 -10 10 -5 0
-10 -4 -10 -10z"/>
<path d="M8873 3008 c-6 -7 -13 -33 -17 -57 -5 -34 -3 -48 10 -62 18 -20 50
-24 71 -11 19 12 34 61 27 88 -11 43 -69 70 -91 42z"/>
<path d="M9457 3014 c-8 -8 1 -24 14 -24 5 0 9 7 9 15 0 15 -12 20 -23 9z"/>
<path d="M3399 2979 c-14 -14 -18 -27 -13 -42 8 -28 34 -57 50 -57 22 0 53 48
47 73 -13 51 -48 62 -84 26z"/>
<path d="M2271 2931 c-27 -25 -32 -35 -27 -56 9 -35 40 -30 44 7 2 16 11 30
23 33 21 7 26 45 6 45 -7 0 -28 -13 -46 -29z"/>
<path d="M9000 2899 c0 -5 -5 -7 -10 -4 -10 6 -26 -22 -18 -31 11 -10 56 19
51 32 -6 16 -23 19 -23 3z"/>
<path d="M2830 2870 c-9 -6 -10 -10 -3 -10 6 0 15 5 18 10 8 12 4 12 -15 0z"/>
<path d="M3110 2870 c0 -5 5 -10 10 -10 6 0 10 5 10 10 0 6 -4 10 -10 10 -5 0
-10 -4 -10 -10z"/>
<path d="M2866 2845 c7 -18 28 -25 43 -15 15 9 3 19 -28 25 -14 2 -18 -1 -15
-10z"/>
<path d="M8907 2853 c-3 -5 -8 -23 -12 -41 -3 -18 -10 -30 -14 -28 -4 3 -7 -4
-7 -15 0 -10 4 -19 9 -19 6 0 20 -12 34 -26 13 -14 31 -24 41 -22 23 4 28 60
8 81 -9 9 -13 23 -9 33 9 24 -38 58 -50 37z"/>
<path d="M3208 2736 c-29 -21 -21 -29 23 -23 46 6 54 11 44 26 -9 15 -46 13
-67 -3z"/>
<path d="M3295 2740 c-3 -5 -2 -10 4 -10 5 0 13 5 16 10 3 6 2 10 -4 10 -5 0
-13 -4 -16 -10z"/>
<path d="M8155 2730 c4 -6 11 -8 16 -5 14 9 11 15 -7 15 -8 0 -12 -5 -9 -10z"/>
<path d="M8106 2705 c-19 -15 -19 -15 1 -15 11 0 23 7 27 15 7 19 -3 19 -28 0z"/>
<path d="M2062 2678 c-17 -17 -15 -57 3 -64 8 -4 26 -3 40 0 41 11 28 76 -15
76 -9 0 -21 -5 -28 -12z"/>
<path d="M3310 2671 c0 -9 24 -21 42 -21 6 0 6 6 -2 15 -14 16 -40 20 -40 6z"/>
<path d="M4370 2630 c0 -5 15 -10 33 -9 27 0 29 2 12 9 -28 12 -45 12 -45 0z"/>
<path d="M8945 2631 c-7 -12 12 -24 25 -16 11 7 4 25 -10 25 -5 0 -11 -4 -15
-9z"/>
<path d="M7231 2599 l-25 -10 22 -22 c20 -20 23 -20 38 -5 9 9 14 24 11 32 -7
18 -12 19 -46 5z"/>
<path d="M7113 2593 c-18 -7 -16 -43 2 -43 9 0 15 9 15 25 0 14 -1 25 -2 24
-2 0 -9 -3 -15 -6z"/>
<path d="M8950 2558 c4 -41 0 -48 -23 -48 -32 0 -47 -18 -47 -56 0 -39 34 -84
64 -84 12 0 37 11 55 24 29 22 35 23 48 11 22 -23 45 -7 41 29 -2 22 -9 32
-23 34 -19 4 -85 67 -84 80 3 21 -3 32 -17 32 -10 0 -15 -8 -14 -22z"/>
<path d="M2240 2525 c0 -8 7 -15 15 -15 8 0 15 7 15 15 0 8 -7 15 -15 15 -8 0
-15 -7 -15 -15z"/>
<path d="M7168 2483 c7 -3 16 -2 19 1 4 3 -2 6 -13 5 -11 0 -14 -3 -6 -6z"/>
<path d="M4520 2469 c0 -5 5 -7 10 -4 6 3 10 8 10 11 0 2 -4 4 -10 4 -5 0 -10
-5 -10 -11z"/>
<path d="M4566 2435 c-9 -9 -16 -18 -16 -20 0 -8 50 11 51 20 1 17 -18 17 -35
0z"/>
<path d="M7135 2430 c-16 -7 -17 -9 -3 -9 9 -1 20 4 23 9 7 11 7 11 -20 0z"/>
<path d="M6721 2411 c-11 -7 -9 -10 8 -16 24 -7 44 2 36 16 -8 11 -26 11 -44
0z"/>
<path d="M9374 2345 c-9 -21 3 -45 21 -45 21 0 30 27 15 45 -16 19 -29 19 -36
0z"/>
<path d="M5242 2338 c-7 -7 -12 -18 -12 -25 0 -8 -6 -16 -13 -19 -7 -2 -14
-16 -15 -31 -2 -25 -54 -83 -74 -83 -5 0 -7 -4 -3 -9 9 -16 79 14 91 38 6 12
21 29 33 37 11 8 21 21 21 29 0 17 31 35 59 35 15 0 19 5 14 16 -4 11 -14 14
-32 11 -14 -3 -33 -1 -42 3 -10 6 -20 5 -27 -2z"/>
<path d="M6940 2339 c-24 -10 -24 -11 -6 -25 11 -8 32 -14 47 -14 15 0 31 -5
34 -10 8 -13 25 -3 25 14 0 9 -9 12 -26 8 -20 -4 -25 -2 -19 8 4 7 2 16 -6 21
-17 10 -17 10 -49 -2z"/>
<path d="M6902 2233 c-5 -10 -7 -24 -5 -30 6 -16 33 -17 33 -2 0 5 -4 7 -10 4
-5 -3 -10 -1 -10 4 0 6 4 11 8 11 5 0 9 7 9 15 0 20 -14 19 -25 -2z"/>
<path d="M9212 2238 c-18 -18 -15 -36 7 -48 15 -7 23 -6 35 6 9 8 16 19 16 23
0 11 -23 31 -35 31 -6 0 -16 -5 -23 -12z"/>
<path d="M8281 2206 c-13 -16 -4 -46 14 -46 7 0 18 7 25 15 10 12 10 18 0 30
-15 19 -24 19 -39 1z"/>
<path d="M3910 1470 l0 -220 30 0 30 0 0 100 0 100 110 0 110 0 0 -100 0 -100
30 0 30 0 0 220 0 220 -30 0 -30 0 0 -95 0 -95 -110 0 -110 0 0 95 0 95 -30 0
-30 0 0 -220z"/>
<path d="M4515 1671 c-43 -19 -100 -78 -116 -118 -5 -13 -9 -52 -9 -87 0 -52
5 -70 29 -109 17 -25 49 -59 72 -74 37 -25 52 -28 119 -28 67 0 82 4 118 27
141 94 128 321 -22 389 -53 24 -139 24 -191 0z m183 -58 c45 -34 65 -79 65
-144 -1 -100 -60 -163 -154 -163 -62 0 -109 29 -136 84 -48 93 -16 196 72 236
40 19 119 12 153 -13z"/>
<path d="M4968 1685 c-2 -2 -2 -100 0 -219 l3 -216 29 0 29 0 3 153 3 152 19
-50 c11 -27 41 -96 68 -153 68 -144 73 -142 158 57 l65 153 3 -156 3 -156 29
0 30 0 -2 218 -3 217 -28 0 c-27 0 -32 -8 -79 -110 -27 -60 -62 -138 -76 -172
-15 -35 -29 -63 -32 -63 -3 0 -23 42 -45 93 -21 50 -55 127 -75 171 -33 72
-39 79 -68 81 -17 1 -32 1 -34 0z"/>
<path d="M5580 1470 l0 -220 120 0 120 0 0 25 c0 25 -1 25 -90 25 l-90 0 0 75
0 75 80 0 c79 0 80 0 80 25 0 25 -1 25 -80 25 l-80 0 0 70 0 70 84 0 c67 0 85
3 90 16 3 9 4 20 0 25 -3 5 -57 9 -120 9 l-114 0 0 -220z"/>
<path d="M6260 1672 c-62 -30 -88 -122 -48 -169 16 -19 81 -48 129 -57 82 -15
112 -73 64 -121 -40 -41 -124 -29 -147 20 -8 18 -19 25 -40 25 -26 0 -29 -3
-23 -22 20 -66 69 -98 151 -98 91 0 144 47 144 128 0 68 -29 93 -152 127 -60
16 -78 34 -78 78 0 35 30 57 78 57 41 0 82 -25 82 -50 0 -5 16 -10 35 -10 40
0 40 1 20 41 -34 65 -138 90 -215 51z"/>
<path d="M6617 1683 c-4 -3 -7 -15 -7 -25 0 -15 8 -18 60 -18 l60 0 0 -195 0
-195 30 0 30 0 0 195 0 195 60 0 c57 0 60 1 60 25 l0 25 -143 0 c-79 0 -147
-3 -150 -7z"/>
<path d="M7171 1672 c-13 -24 -151 -403 -151 -414 0 -4 13 -8 29 -8 26 0 31 5
46 50 l17 50 97 0 98 0 15 -47 c14 -43 19 -48 47 -51 17 -2 31 -2 31 0 0 4
-103 290 -133 368 -22 59 -28 65 -55 68 -22 2 -34 -2 -41 -16z m79 -172 c18
-50 30 -93 28 -96 -3 -3 -37 -4 -76 -2 l-70 3 35 97 c20 54 39 96 43 93 4 -2
22 -45 40 -95z"/>
<path d="M7500 1685 c0 -2 32 -68 70 -146 68 -137 70 -144 70 -216 l0 -74 28
3 c27 3 27 4 33 93 6 87 8 94 68 205 35 63 63 120 64 125 1 6 -11 10 -28 10
-27 0 -33 -7 -76 -94 -26 -51 -51 -97 -56 -102 -5 -5 -33 39 -63 96 -49 94
-58 105 -82 105 -16 0 -28 -2 -28 -5z"/>
</g>
</svg>
